<mxfile host="65bd71144e">
    <diagram id="Jn2F4VxN4vTwLlXbwu4h" name="Page-1">
        <mxGraphModel dx="6392" dy="2948" grid="0" gridSize="10" guides="1" tooltips="1" connect="1" arrows="1" fold="1" page="0" pageScale="1" pageWidth="850" pageHeight="1100" math="0" shadow="0">
            <root>
                <mxCell id="0"/>
                <mxCell id="1" parent="0"/>
                <mxCell id="334" value="" style="rounded=1;whiteSpace=wrap;html=1;fillColor=#F7F7F7;fontColor=#333333;strokeColor=#666666;" parent="1" vertex="1">
                    <mxGeometry x="-1346" y="265" width="2358" height="683" as="geometry"/>
                </mxCell>
                <mxCell id="295" style="edgeStyle=none;html=1;exitX=0.5;exitY=0;exitDx=0;exitDy=0;strokeWidth=4;fontSize=32;fontColor=#1B2D3D;entryX=0.75;entryY=1;entryDx=0;entryDy=0;" parent="1" source="290" target="271" edge="1">
                    <mxGeometry relative="1" as="geometry">
                        <mxPoint x="468" y="710" as="targetPoint"/>
                        <Array as="points">
                            <mxPoint x="829" y="863"/>
                        </Array>
                    </mxGeometry>
                </mxCell>
                <mxCell id="290" value="" style="rounded=1;whiteSpace=wrap;html=1;labelBackgroundColor=none;fontSize=32;rotation=90;" parent="1" vertex="1">
                    <mxGeometry x="-704.06" y="750.5" width="111.5" height="225.12" as="geometry"/>
                </mxCell>
                <mxCell id="289" style="edgeStyle=none;html=1;exitX=1;exitY=0.5;exitDx=0;exitDy=0;entryX=0;entryY=0.5;entryDx=0;entryDy=0;strokeWidth=4;fontSize=32;fontColor=#1B2D3D;" parent="1" source="287" target="253" edge="1">
                    <mxGeometry relative="1" as="geometry"/>
                </mxCell>
                <mxCell id="287" value="" style="rounded=1;whiteSpace=wrap;html=1;labelBackgroundColor=none;fontSize=32;" parent="1" vertex="1">
                    <mxGeometry x="-400" y="411" width="120" height="180" as="geometry"/>
                </mxCell>
                <mxCell id="285" style="edgeStyle=none;html=1;exitX=0.5;exitY=1;exitDx=0;exitDy=0;entryX=0.5;entryY=0;entryDx=0;entryDy=0;fontSize=22;fontColor=#1B2D3D;strokeWidth=4;" parent="1" source="244" target="255" edge="1">
                    <mxGeometry relative="1" as="geometry"/>
                </mxCell>
                <mxCell id="244" value="" style="rounded=0;whiteSpace=wrap;html=1;labelBackgroundColor=none;fontSize=20;fillColor=#f5f5f5;strokeColor=#666666;gradientColor=#b3b3b3;" parent="1" vertex="1">
                    <mxGeometry x="-208" y="-248" width="460" height="449" as="geometry"/>
                </mxCell>
                <mxCell id="245" value="&lt;font color=&quot;#1b2d3d&quot; style=&quot;font-size: 30px;&quot;&gt;&lt;b style=&quot;&quot;&gt;MODELS&lt;/b&gt;&lt;/font&gt;" style="rounded=0;whiteSpace=wrap;html=1;labelBackgroundColor=none;fontSize=20;fillColor=#fff2cc;strokeColor=#d6b656;" parent="1" vertex="1">
                    <mxGeometry x="-208" y="-246" width="459" height="60" as="geometry"/>
                </mxCell>
                <mxCell id="304" style="edgeStyle=none;html=1;exitX=0.343;exitY=1.007;exitDx=0;exitDy=0;strokeWidth=4;fontSize=32;fontColor=#1B2D3D;exitPerimeter=0;" parent="1" edge="1">
                    <mxGeometry relative="1" as="geometry">
                        <mxPoint x="-719.0799999999999" y="103.82000000000016" as="sourcePoint"/>
                        <mxPoint x="-718" y="300" as="targetPoint"/>
                    </mxGeometry>
                </mxCell>
                <mxCell id="309" value="&lt;b&gt;&lt;font style=&quot;font-size: 30px;&quot;&gt;Source data&lt;/font&gt;&lt;/b&gt;" style="edgeLabel;html=1;align=center;verticalAlign=middle;resizable=0;points=[];fontSize=32;fontColor=#1B2D3D;" parent="304" vertex="1" connectable="0">
                    <mxGeometry x="-0.4825" y="2" relative="1" as="geometry">
                        <mxPoint x="-10" y="53" as="offset"/>
                    </mxGeometry>
                </mxCell>
                <mxCell id="305" style="edgeStyle=none;html=1;entryX=0.809;entryY=-0.004;entryDx=0;entryDy=0;entryPerimeter=0;strokeWidth=4;fontSize=32;fontColor=#1B2D3D;" parent="1" target="219" edge="1">
                    <mxGeometry relative="1" as="geometry">
                        <mxPoint x="-552" y="100" as="sourcePoint"/>
                    </mxGeometry>
                </mxCell>
                <mxCell id="310" value="&lt;b&gt;&lt;font style=&quot;font-size: 30px;&quot;&gt;Target data&lt;/font&gt;&lt;/b&gt;" style="edgeLabel;html=1;align=center;verticalAlign=middle;resizable=0;points=[];fontSize=32;fontColor=#1B2D3D;" parent="305" vertex="1" connectable="0">
                    <mxGeometry x="-0.5096" y="2" relative="1" as="geometry">
                        <mxPoint y="57" as="offset"/>
                    </mxGeometry>
                </mxCell>
                <mxCell id="209" value="" style="rounded=0;whiteSpace=wrap;html=1;labelBackgroundColor=none;fontSize=20;fillColor=#f5f5f5;strokeColor=#666666;gradientColor=#b3b3b3;" parent="1" vertex="1">
                    <mxGeometry x="-871" y="-158" width="440" height="260" as="geometry"/>
                </mxCell>
                <mxCell id="175" style="edgeStyle=none;html=1;exitX=1;exitY=0.25;exitDx=0;exitDy=0;strokeWidth=2;fontSize=16;" parent="1" source="166" edge="1">
                    <mxGeometry relative="1" as="geometry">
                        <mxPoint x="1000" y="-850" as="targetPoint"/>
                    </mxGeometry>
                </mxCell>
                <mxCell id="166" value="" style="rounded=0;whiteSpace=wrap;html=1;dashed=1;strokeWidth=2;fontSize=16;" parent="1" vertex="1">
                    <mxGeometry x="610" y="-890" width="340" height="160" as="geometry"/>
                </mxCell>
                <mxCell id="174" style="edgeStyle=none;html=1;exitX=1;exitY=0.25;exitDx=0;exitDy=0;strokeWidth=2;fontSize=16;" parent="1" source="165" edge="1">
                    <mxGeometry relative="1" as="geometry">
                        <mxPoint x="1000" y="-860" as="targetPoint"/>
                    </mxGeometry>
                </mxCell>
                <mxCell id="165" value="" style="rounded=0;whiteSpace=wrap;html=1;dashed=1;strokeWidth=2;fontSize=16;" parent="1" vertex="1">
                    <mxGeometry x="600" y="-900" width="340" height="160" as="geometry"/>
                </mxCell>
                <mxCell id="173" style="edgeStyle=none;html=1;exitX=1;exitY=0.25;exitDx=0;exitDy=0;strokeWidth=2;fontSize=16;" parent="1" source="164" edge="1">
                    <mxGeometry relative="1" as="geometry">
                        <mxPoint x="1000" y="-870" as="targetPoint"/>
                    </mxGeometry>
                </mxCell>
                <mxCell id="164" value="" style="rounded=0;whiteSpace=wrap;html=1;dashed=1;strokeWidth=2;fontSize=16;" parent="1" vertex="1">
                    <mxGeometry x="590" y="-910" width="340" height="160" as="geometry"/>
                </mxCell>
                <mxCell id="171" style="edgeStyle=none;html=1;exitX=1;exitY=0.75;exitDx=0;exitDy=0;strokeWidth=2;fontSize=16;" parent="1" source="163" edge="1">
                    <mxGeometry relative="1" as="geometry">
                        <mxPoint x="1000" y="-983" as="targetPoint"/>
                    </mxGeometry>
                </mxCell>
                <mxCell id="163" value="" style="rounded=0;whiteSpace=wrap;html=1;dashed=1;strokeWidth=2;fontSize=16;" parent="1" vertex="1">
                    <mxGeometry x="610" y="-1110" width="340" height="170" as="geometry"/>
                </mxCell>
                <mxCell id="170" style="edgeStyle=none;html=1;exitX=1;exitY=0.75;exitDx=0;exitDy=0;strokeWidth=2;fontSize=16;" parent="1" source="162" edge="1">
                    <mxGeometry relative="1" as="geometry">
                        <mxPoint x="1000" y="-992" as="targetPoint"/>
                    </mxGeometry>
                </mxCell>
                <mxCell id="162" value="" style="rounded=0;whiteSpace=wrap;html=1;dashed=1;strokeWidth=2;fontSize=16;" parent="1" vertex="1">
                    <mxGeometry x="600" y="-1120" width="340" height="170" as="geometry"/>
                </mxCell>
                <mxCell id="169" style="edgeStyle=none;html=1;exitX=1;exitY=0.75;exitDx=0;exitDy=0;strokeWidth=2;fontSize=16;" parent="1" source="161" edge="1">
                    <mxGeometry relative="1" as="geometry">
                        <mxPoint x="1000" y="-1003" as="targetPoint"/>
                    </mxGeometry>
                </mxCell>
                <mxCell id="161" value="" style="rounded=0;whiteSpace=wrap;html=1;dashed=1;strokeWidth=2;fontSize=16;" parent="1" vertex="1">
                    <mxGeometry x="590" y="-1130" width="340" height="170" as="geometry"/>
                </mxCell>
                <mxCell id="160" value="" style="rounded=0;whiteSpace=wrap;html=1;dashed=1;strokeWidth=2;fontSize=16;" parent="1" vertex="1">
                    <mxGeometry x="580" y="-920" width="340" height="160" as="geometry"/>
                </mxCell>
                <mxCell id="159" value="" style="rounded=0;whiteSpace=wrap;html=1;dashed=1;strokeWidth=2;fontSize=16;" parent="1" vertex="1">
                    <mxGeometry x="580" y="-1140" width="340" height="170" as="geometry"/>
                </mxCell>
                <mxCell id="128" style="edgeStyle=none;html=1;exitX=1;exitY=0.5;exitDx=0;exitDy=0;entryX=0;entryY=0.5;entryDx=0;entryDy=0;strokeWidth=2;" parent="1" source="117" target="118" edge="1">
                    <mxGeometry relative="1" as="geometry">
                        <Array as="points">
                            <mxPoint x="160" y="-945"/>
                            <mxPoint x="160" y="-1023"/>
                            <mxPoint x="160" y="-1053"/>
                            <mxPoint x="160" y="-1093"/>
                        </Array>
                    </mxGeometry>
                </mxCell>
                <mxCell id="129" style="edgeStyle=none;html=1;exitX=1;exitY=0.5;exitDx=0;exitDy=0;entryX=0;entryY=0.5;entryDx=0;entryDy=0;strokeWidth=2;" parent="1" source="117" target="119" edge="1">
                    <mxGeometry relative="1" as="geometry">
                        <Array as="points">
                            <mxPoint x="160" y="-945"/>
                            <mxPoint x="160" y="-865"/>
                            <mxPoint x="160" y="-843"/>
                            <mxPoint x="160" y="-803"/>
                        </Array>
                    </mxGeometry>
                </mxCell>
                <mxCell id="117" value="" style="shape=image;verticalLabelPosition=bottom;labelBackgroundColor=default;verticalAlign=top;aspect=fixed;imageAspect=0;image=data:image/png,iVBORw0KGgoAAAANSUhEUgAAAIwAAAAyCAYAAACOADM7AAAffklEQVR4nNWdSY8kuZXnf9xsc/dYsqpLEiToNgJ06jnrm/dH6EvPdRpoYLoBobuUlRmbL7aRfHMgbXEPj6zILNWgh1UeaWFuRj4+/vk2PjLUP/7Pf5Q//Y8/8ec//5n7+3uccyilUEohgCDz7wqFSLpL/ikiREnP6Ok9kekRtNbpWRFEYrqvOCtqdUNyXQAxxlSv1mitU1sxEmPMdPDqPaUVKEUQWZ4RwRiD1vqs6ShCRJi6pMh9mHo3NyHXaVb5MZFUd+77RCMy1ZTuTRVO/Jz6CKmPxhgkCjEKRmtQat3gWdvp/dTXiRaJgSgxtyiQea60Qms18+m8UlnX+qqxYRj48ccf+ad/+ieOxyP2/u6eP/3pT/zlL3/ht7/9LWVZngEmMevbAKMyc8j3ZsBcFJUHSfLgcgUwaq5D3gmYyPyICMZojDZn70RJjE30Kub/FBMSXhO7onnd9prGECIxytl4xxgJwRNCQDKAjTEL3UrPv8sEmGnglFouZ/pU/j8BRymIElfAlJnnM1+mcVtNyjQvZK5nDRalFKfTiX/7t3/jn//5n+m6DluWJd9//z1//OMf+cMf/kBVVQtgJobpmazlnkrNxzyIE6D0DJj03CRhJqZdK/qC+evnU2f12Yy8rGd6Z565GmJM0iM/gNHmfBCASAKeZMYtgFGwmhjXyiVg1jxL5KRBTFUlHnVdx+l0ou97yrKkaeozia6UJoaIxAWACoWo9SCu/r2QegvbJ+maeJUkjF7dz/RP7MliX10BzOFw4Hg84pwDwE7ifiZwJS4XpkwS5pJrS/WL2lp9uapjDYQ1s+fer6W+Wp6bPpNKWtP3ipz1d0pILFrVqc55rAVkGuTpEbXWBNfbudaHS76tAR5CoOs6Hh4e+PTpEy8vL3z48IHf/e533NzsKIoCrTRRAkoJqDirnHPIJikxCxyZLrJKkrXaA5HcaVnAoVBZXfGq5p8rSinsO567wN2qXKj2s2dmcfm60bcakbPRlavvT3VcAlAWjiSGymIuXTGbXtG84vuahG8qE+iipI+PQjeO7I8nHp6feXp6Am3Y3tyw3W0WMGepMKmUcwLUK/ic9Wxtb3Ht+vpr7+9TesF672cRPxlebw4qrwdc5qFaCbQrr1+XXFfKYoMhKs720/SeMSbZMK9eWNtMzCoTso2hNEad2zDMQJPZQJ2NyTUhX1FmiTp9tEKMIRqLOIcqK1yzYQT2p5bfqsn2CSTtnVRQUiFJha4l/RW7dC5aFGDmPqd3VypJLlTSxJ8vqKRJ+0zFTqpIr+yEr2LQKyX0hWffU//qkclgvlbPNQGwBqtaLuZ/hXhBsUyK84L4y1mqLi4vDO51ravHowKPYlCKVilabRidQ213RGMZUASSR6clnqtFmKdisgnz95knCv0FQbEY3FrPhtTMu8vyliSfwLWW5vbdM/8L5dveek/FX1BJc7tfMkzPLyQD5Osl8ho0r13spe4FNKIgAF3w7Puex7blGAPBlVhXIiHQx4hflCkzgGdQZtjMqgoEvWpnRdfVDqm3WPjucumNvsuG+e9W3qGl3xjU9wDlqty6+O5SIV7aEekySFI7f3t64uPzMyEKtixxxjKejnTjgI9Z7WqNWsVq1hSLSFIrxjCpqblVOXv0Z/ryy8v/d4B5DZbXpuCXGLU2hM/LG9Js/d2FOnplgk6qCBhi5HBq+fz5gf/6+Dc+Pj7hipK721tu7j9A3xG7keADUQSUTlJKyUXlktWpIsiirua+zKTJBbTfBxZZV3aFC2tP9d1e0n+Xck2yXGfLKuh4dnd555rc+BJk3lsm5eFD5HhqORwOtMcTfhiw2qBFqFxBtJZekYN5EbRNgyeTN7QARZQmRCH4gEayIbpAWV+l4n20fm2xv6IF8nctb4Plkv7Z7zkrl36PrOAjX4TM2+79W7RFSYBp244YInVZYl2BcwWbsqJxlugc0RhCCCuvb0XlukmtGcaRrh8AKIqC0jk0KegpawH4DTD4GpvOvqbul5dvcPO/qY0U1ic7OWoGwjL8iYq4ApES8nqROgPWpAn0FYUlyJX+ZP0wD9NSXxBhDJ627xCJbOqG3e6Wsixw1tKUJb3WKIS27eiqmqIoIAp6UjkSUwRcaXyIPDwf+PzwhDWG+/s77u8KrFpDbH11qZ6m8vaovHfMfiWVJO+Yl99a8wKWKLmlOeKZFxQlrcUIEGJgGAdCjDl0LlhjcdYmIzKDTbOA5qxcetwXxIhawBLzx0tkDIFhHEGgKSt++HBPVZY5qCicrMVpS9f27IsjSisKa3BGYRQgEaU0EiNt73l8PvDjpyeq0uGqmt0NaKNWNs11efvuct2we1VWKunvN7wphH9e57WA0S9rI9UZAZOZFoExBEIIVEVBBDrveXp6ZhgGQkxgqqqKptmw2TQYo5NUEbkCmktVtShDUedPrT8hRsYwEkJAK0XlCm7qiqosQYTgPZuypC9L+q7nwQe6tufDh1uaqgCj0CJEiYQg7I8dT/sjT4eWbRS6ITBGwRo1L3+oPODnFH/ZOntV3gGaX0XCKBTjMNL3PcH7ZF1biyscxthvDhJeDswUyIoCY/CcTi2ntiUEz267I4rQdi1Pzy94nyIe4xg4nVq6rgcFdV3jrEmMlzW/1oJ8LbCve0lrmnwIDMOIiOCMoXIOqxQ6iyGtNTebDVrBy/HE8XTk+eWZsnQ4qylcCXlFfgyBQ9vRhwi2QNmCgGIYA5VTM3UThedUrnn89xEMv5qX1Pc9Ly8v9F2H1pqyLKjrmrKqKFyB/pkliNclxyS4AE0UvA90fc/T0zOntiXGwOg9IUaGfqAfetQc4g50Xc8YAmVdYazFGp29EfUqo+FbAn3Be8ZxBBGstRTOYVSSGkiKvm6qEms1ylhGP7I/7DkcDpSFoyocRiX1OnpP2/UEUdiyRruCIIrRBwTDtHD7urwPIGuwvaf8aoDpuo6nx0fa9oTWirIs2W62bHc71EZR5GDVWSjyTQl67vdMJp0IhBA5tS0vL3s+PTwSQpJox+Mp5Z4gbLdbms2GoigYBs/z8zPtqeV0PFGWJWVRYK6BV63iNpMncjE417w3HwLjkAGjDaVdSRgRrFIoY7DOYFzJGDz9MLDf7ymcpa4L6kITQ6AfR/rRo4yjbBzGKCKKYfQoKVaR4YnkJaAgZzLn50HxHuD8IsCsmbUWhaMoTl44ekEZh1JCDIGXw5EgiqgMN8bilD6PIayjavPEWcAiqy5FYIyRU9/xcjxyOJ1Q2rCpaozW/PTxb5zaE9ZafvPDD9zd3lKUJTEmG6LvOvww4oeRGCLK6jeZtRjw6sx2uYzsTKTHEPDjiBKwxuCcXSUxATrVoxRYC7tNwzjc8PlTz37/giLyw/f3xJjSIiQGSldS2gqiR6IkCSMLJKb4r5AqFkmRZj9J2+DnyZlso4A1hsIVWQK+3f91sT8XAvvaEgUGgTZCJ5pNUVFahUU4tj2HtgXrqOsGq+21qNOrsgBn6VIUYYiBQ99zHAZGEZrNlqaus/6HoR+QEGnqhk2zwRUpCaiukkQJIRBDQGJknel3vVxRTmdubYKVxEgYPXH0GKUoskrSOnk0MvnNuRqjFE1VEm9uGLqW/f6Fh4cHdtsKiZG+61Ai1KXFlgV9l7LokspNU0hf0CkofAj0PtD7kVPX0Y090+p8zPVWRcntdsfdbocxbw1EIvbvEul9S8IMEbqo6DHcVDU3m4pKwxg/0w6el8ORu9t7SicYFHkR+ZV0maEs60W5VIIIvfcchp5BBFdWfPfd9xTG0p1OlEWJVhoE6qqicA4R0AqM1hibl/tjnAF2fYqtPL0LsHDxjYgQxpEwjMTR47SlLIqUIKXX9ZxbGKVz2N0WYxTD0PHp00fa0z0g9MOAM5aidLi6IPoR7wOjD4w5u08pybk0i+HeDSP7U0s3jjwfD+y7I1EBSvDes3954XazJYqwaRqcsedTYi1HZOmwvbQPfkmZYhE+SnJhAaU1zjmqwuDKiuN4oh08h26gKIpkcErGi1rqma7mJXYUIku64jAMHE8n2q7DKE1T19Slw2oDIYHHKI1IoHIWTaIJnXJ7C+MgRqJPUmZu8bopc9VWmTBuSCkKwXuOhwND32G0ZtM0NHVF6TQ6e3OTWr0017TW1GXJbrOhPTV0bcfoR4bBU+8+sGmqLGG6ZJvFiB8FbyLGLHyKAsPo+fzwyMPzC0Vdoo2maRoGP6KMpiwiwXuMMXjv6fseqwyFNWgWw/8s+BeTBP1mCbMG4JqhIsI4enwMoMAYjXUW6xyuqBAz0g+eYzewbTxN5b4Q2l7bL+d3fAj0fc8wDDRVTVk4SquxWqMrx/cf7qhLRwyBwln0igPJrnAMfU8IPgFG5GzmX/b1tVO9pjmlYg59z/FwJIye0jm2mw11VWLNRYq1el2HIiWqN03NpmloTy390CNo7gpHUxWYwlBYTa8VMUbGYcRbcEqhFcTsPT297Hne72m7jnq3oapKRCtGP6KMSjaMD6gQ8d4zDCOl8zhjWMVAzwhUimT3XOHPV5c1aGKUHH8Z0Sq5lcYYtDG4skS7njAKx66nG30CgMreh7BciOTrpJNndSDp+RjTLAnBgwhGaYyCQkNRGpryhvvbHVHA5OipReEjOGspC0fXngjeE2PgEpjrwVz3E7gAeCp+HGlPJ9rjEVA01YbdZktVFIv6UczbWC6jOQpJxm1RsGka/vPxkWEYqeomrx1ZtFEpZqTShOn6jsYKlXEo55AgtMPI3z59put7qrriw4cPlHWVE/kVkUg/9PiupzueCD4wjmPKuryQ8NPKhyJpimEYrgHmfR75NTEtQJBI33fE4LFaYc2yL8kWBWVVYX2k9yOj9wksmjkHd5Yzkx2jFIKeM/GnNmNMxpsCrNE5+JZekmlwtJrd4GmjgQgYbXDWgSTvbZIw18orCXrBpen7oe855QGoq4btZkNVWrRW5K1HZ6kJ57Wl5HZnLJu6RuIdfdczek+R3f4JaFZrrFL4GPF+RKRAacM4Btph5GV/5On5hbv7W37/+9/RVGnbUMhbTrQCqxSFMYxJbCAxokSWHR9z/7KxqzXW2jVgzgTm+8ucfZbeCxGGMdB1LUoiTV1RlQXWWpTWaaZUBa5PCB9DSDNe5Vk7G7xTgG6RLMu/IDFLmJgY4KyhzMGxdVlSHc8Ht3SOpq4pXEH0gdPxRFVW1CVYa/MATl1cqaoveFHj6Om6HpFUR1kW2BycvDRyXyvZVLTWFEXJFkX8PhBixFhLWZbZHiOvN2l6ks007YnyMTCMgbZPcRtXFNzc3KBJbvQ0kTQKrQxNUTKaln70WcrGNydNMugjWv8iG0byLrslxXPwwqENHI8nXOn4cHfDbruhtBYDlFoo+xT+9qQB9wG0Sd5LqndhbZyv0g+RnImfo7sxBLTRFM5RFsl11TN9y8tru0EDui5RWnE6HXl+fubzp8+JKXd3bJoNKZ6YakrqKomHZa/Qa1UVQmQcPUppdN5luW5bv421s6K1pqoqyqpIdQvJgYhJSpTOUjiL0SmwJ1kd6xzQ81Ew1qHnTXtJcui82GQy5Tf1hv54Ymg7hiEZ2BGQOK2ST8TLbJ/Vdf3tgFGohPqVPu/ajv3+gNGGuippqhI7b5UFoxWF1RRW0caRsW/p2hOqKhFJLuThmNw/bS3GJldPK01dVRhjQIRhSOH+cRzBarRKQJAo1+T+WUl2VppxH+4/IFF4fn7ieDhm4BWUZXE2gLM+yYuqegXmqdJpg521LrnteVvuZAd8rR+6TmI3SqGSqMBolcEXGcek1r2AjzAGwUdBW4c209Dm4J5MCj15VKVz1GVJawxd23LY7ymLgrqqmQdsleuttcZZ98uM3vWWCoCu7zkcTxijU/zBJR0+jZ9RUFhFVWhOBvzYczzuSfGGkcPpxOHUEhREpRiCx2rDpqz4hw/fYYwn+LSo2fc9IDhrsugHAohebQN9o0wb4uq6ZrNpOJ2OnE6nOTh1e3eb7AajUyznwn8789iyVg6SZuK0VedLC6zvA4+af6Y5kAbQGo3Vac/AOHpG79MKfYQxRHwQrCvyZMtKXZhX4qdkMWcMdVFSlSUv+z2n9kR1LKmKEvKW3bV/rVWaBH+3taRAChad2pbdTYOzBrOSw9NlaRSb0tAVhuB7Xp6f8CGyP5542h/QRckgwsvpxH/+7UeaouR33/8Ddb2F6Dke9vhxIBBSfKfO201Rybi5FkhZlcmkS7MGisJRVRUPjw8cT0cOpyMR4cP9PY2tz2ygKZYyCTKyetRKLTZV9ghVVkmZ3xfRrtf2y1tlbTtpJcnoNQatNCGkRc5h9AQ03gd8iDhXYo1d1ZFBMzkWOWeoLBxN03A4Hej6jv1hz+3NLVrnxPNpRmTJ+irS+4bN84rd6SqdMoBSRDR9SDaMSJ71M2AkDxBohMIomtLidw3HQ8swJCkjGG7u7qh2NzwejjycWtreo5WlGwKfHp+xSiC7nkXlcJXDVQV1WTB5GlntXrVPJ7d/8qBEImVZcnd3R0Q4HI9473nZH9DG4GMk5lSFcRxRWqUF1O0mr9UsGX8x59oorXIYYZGs62jSedjufWXamz1l/mm15ACFEBj9iGiHD4EQIlVpMXbZtLe2uaZ/tYLCOZq6oihL+q6jbVvarkWRPMlI6tOUEZDjMGrexD1vTF9VfE0QS+5EiBFyxSmpx6O04AqDs3rulMomulIpE652BbLZoEVx0j2CoSorinpDudkSRHiuK263W7QyDD6lKG4qx7Zy1E1Ns6moqgLjFE4ZNClD7YuOXh45hcruruCcY7vVKGPAWB6fn3naH/ECvU8R4Lbt6NoWEfjND4qyrtMJDZklWhRjTL9rbdBGZ6N55dl9hVR5k/A8KbQGo0HlsEDwHuMMEjwSBpwpZtvxasmzyVib3PayZOgHxnGk6zoK52YJNQF1ttFmkmQCwrrOKYA2mXiLXouSjrUARVTQ9i0+DhgrFBNgtELHFYNU2rLqbMl24yhcxWbriaKwrsSVJWhNbArihzsaa3h6aTmePC/HHuccRd2wu9nSVI7CKjQRLZL2AarZL78KnATeyZCTKViT9H1RcfQROXY8PH3i0A8c+pGqLOhzBHfoB4qqYXN7Tz8MyXMyGqXSthJRKiWI5ZVfWc2+a4C5CAJcJVrmB2UGujUKawAViSG5xYUrUDIivsfpBquXlWzJYzS3kFUoWmGto6pq2lOXpEzX0TQN2pqV4bs4EvZyFkw5smf6dt55N0VI8rEYRoPWhBBpuwM+dFgH1irMfETIamEsJmKVMskwLjXOFUiODSidwtZbZ9C7DbuyRMUnjqdnxqDBFBRVTeEczmgMEYNn2RU8dU5YoJF7cTYR0ijo7FEJoDS4qqLZ3TKEFKFuNg11VVL0A8oUPD4+cuh6fvz4icfnJ5rthpu7W1BCHwOs7JdJCs/ImUPZS/uXskZduZp/UykZUyuFs5qytFgNw9Cxf35OKRvHPTK0OH2P1dM5DWo2otZh/zhZ01pTuCItlQwDwzDgfSAdM5LV+KTupzjMTLgsFU83ZUb3ivkIkRQXGLqOY9ex3z8T/IArHNbq2Ts635il5krTxnpN9pSZAy0SKY3G1CV1VfPp8ZRSBiSdn+KcxRqDUUmq6CnINiPiDfGyYv5kT6yT1YwS6sJye7NJidg5YFYUBWPlUdbRDZ52jJx+euDjTz/x/Q/fYeoaJK0en3lIqMRqSTQtRxZMAvCSzi/RvVjPCrDWUJaOonD0XcqhCTHgxwFnNVVh5wj7XPsEmrm1PMWUxhUFrigwXZfsoBjm56coxXR+jZ1plfXAshwpkqefzDkIKVs/xOQVPT6/8PD0xMv+haIs2G6abMWrlYW/mHxrw3omXkBW0Uils+uoDEoJYexBOzQBq8CqHIA74+n5jH0TMme6YrolGGDrFOW2IDQOjEUbR9TgQ5lWir3w8dNnPv70wMefHlBlyd2HgRgGgk+Ld9rofAqWrBi4Vklr0HyR0leETzLTGpsi01VN13ac2lPeTqvZ7XY0zQZn3ZmMXRvgZ3WqJOWLIkXkYw4PSJZm8wkO+ZSJc7d6hZmpMymXPgJ6BlGQSDeOfH545OOnzzw8PtL1Ld99910K7miDmY0+OQtczQJnpnwFrDyYCuY0BqPBWUVZWKrCYPVa2y9HbQlcXRQ8L/Lqeq5HAk55jAmI1oiKBAJBNFEpjDU0uxvk8cBhiIxi8FHRD57QdWjxlK7ATNJ15ZZcN3jXQ/ia4ss766etMZRFye3NDUCKDJclZVFS1TV1XWOs/QInVpuAlEqnc5m0fOP7nq7v6do2eUoxzieAKXKK5kxMPi1JsnGVl1dJDrEwWTJehG70PDy/cDieGL2n71OWfOEcRpuLEPpqxq30wHxEjppC+mpG1DScdem4u9mkvThNSWE0Wp2tX7+rrI4cOrue7DKFoFRMPVXTskdESJFkazR1XVJVSU1VVY3WmnEYGfuO0mhsbTDazOeppOnyLV7RJe3nUNNKU1jHdrvBGMOw2WCNpSgKijLtsFRvrEUsgmCZMMsZMIphHDidTuwPB6qyREJcXkzSfRErPnhkSG52Ci/nFeAMHiEF6IYY6EbP8+GIaM3NzS3ee5x1OGvT2sZKIJ7P5elyIj3VnWC5SIsk0+Bm2/D7335PUTXsmpLKGUw2pJO2y4Ojfj668bNzWpKxGmMO/a9Un1FQO8X9tuK3H26odKR2hjD2jONAaSqczZNlttVyzeqcB9epertck0tWa2xVs5lC+avnrp8k+IU6VVZ3Igxdzz6C1QbZ7dKGwNUBTnbqEAjjONK2Pf0wUFQ1VbOhbCqQRESIwhACw+jpfSQqze52x4e7e+7v79htGpqqTjbMzLZLoKyLOru5FtzT3dttQ1kWKGMojKE0CqNikkhzVHfyka4wf6X60u/rPZnLiCZvwiLElHeLBpVcZgMUgNbwm/sdtVV8rC1t1zJ0J6L3FNbS1HVamZ8RkvN81yrgjJr3Kc/3WzmpzGf7vTGDhDQ5F4Nf53WkKi2J5AStFEFnXiYQySmaU9gXSfuJ9ocjxRhQ1uKaiijQj55uGOnGkSiR3geiUlR1w3fffeBu11AYm/bUaP3lfOorbHhLOlRF8gYkG6YaSds1zuq41pjwc8sEl/QkJ9HMEm8qhgX2u9pRmh3iB378W8v+eECrFN2tqgprk8GfTbdMikJW+1N+nU3E655w5hFd+/5SwhTOsdlsGMd7FGmDX1VW+DzeMUZkHbhTSuWjNU90XccYA9W2AfLBOMeOx+c93ThgnU0pgaRclG1VYqtyxqxmsTF+iQafBknP/+br897yGjBZRs2eys8M0BsBkSUrJ92K2VMsTNqIJsFz2L/Q1DU6M93ZlL+r5Asj9o3lvTCbu/yl9leVCcz5M01dY4zBWYuzjv1+TwxpnSzEiE0edaq5KBLK2n7g1PUcjy3YF4KxfPz8yH99/IluGLm93bHbbdAmb2gn680oKFms6td0fw0HJ60/DVoOGsqFVJn111ugeX+zi8e0Fk7ZQwRS5DH1rSwsSMQPA+XNbTaG8w7HGXDn5vX/63J1Pe0NcozWGOcojZ1X7dOH2a3W02r15Gtba2iahpsxMIwPSdLIMxQlLy979s8veKAsLGVhKazFGTPruWkmrj/vZddrBbUARk1R5leq6K3f1/V8nfifPJsEmpziqfKiX6ZL65y+kbfZ7rYbmqpa4k8TgC+DTuptan5tNfVzJS07GNQc3FoOvE7fp2KBGSwpR6RCUBxOR54PJ45dh61qfHtCx8CmqlAxMLYnbnc1tXOYHOwxSmHz/pZJKlwGiiYRz4qYRQVMN9fm79p9fi9Qrjz2JnLfVl1rSaNI6Q0mRzxVkVZ6b7ZbPny4p2maeUZfmNRLudrf9/fml8qqV9Jlyt+dhXUegbzgOOX4Soz5bzIIVkSIIeJHzzh4JB+Ztdtuk97a7+n3zzgZud8UhOgJbY/Egh9+/xu2VTWnCkYBr2IyeiekrtGxCgwuRukkSVZn5p6Rr1ZPXCtqqVutAHp5eNvCpet1qOV6DdCZmQrU5DKrBJ4//P733N7fsdlsqcsKUPNuxLVqW/99hteULB7VcszqlS5+gwS6PAFz3adrXtR6ziiWo/61MWkF2xossvxRg6kBYwzbbQNKMBratkWoQKmcHjngrON+s6F2Lp2ctOqsSMyH/GRv4Wwgr/Us/3jTtUoKbjkJSuZ76dfkhbxnBr7trr6e75fkrDPojFLc3ezY7rakwKNKRyqv1aZasv/W715r93Lp4JeWN5WxWnFOnd9nfT9P5kmqTqd2zUavyHQSeNogb5yhKgvub3dzdnqMaeNTCCkxelMWTGk6l+mI81/zuDzD/Uz0n5vD6sq9a4xYX6WV9WlOr2T+Ordg/Za8rv+67LrG8nOKpi0bqQ7JZ84trS4/fwYC6uKZvwNiEpvflslffjE/p6YVfUUIeQP/8XjgP/7jP/iX//Uv/PWvf8U6mxivlkGNOfPs8k/PWOsugHKRT6suKFh68roT6jWIrnfzsj6VpbqwLFS9PVCXYvpLf+jiSyWuPlNLKdF6MtSnitb22KWkWbalXlcfa4K+/PVluaZy1vVcGYE8wWeDBpFI17b8+//5dx4fH5Nb/fT0zP/+13+lH0Zudrv0V0M4/+seU4emz1sdPLv3yrJlbcZMJJ6T/LUza20TTaCZm34NmrcG5WtBMwnKtwHDktYxPX02jy6i4GsWvbWhbj0Y7ylT+uhlmaTZpbol1b9Oc40xnXPz+dNnPn36hDGG/wv3Cf2EDBq9ZgAAAABJRU5ErkJggg==;" parent="1" vertex="1">
                    <mxGeometry y="-970" width="140" height="50" as="geometry"/>
                </mxCell>
                <mxCell id="130" style="edgeStyle=none;html=1;exitX=1;exitY=0.5;exitDx=0;exitDy=0;entryX=0;entryY=0.5;entryDx=0;entryDy=0;strokeWidth=2;" parent="1" source="118" target="120" edge="1">
                    <mxGeometry relative="1" as="geometry"/>
                </mxCell>
                <mxCell id="118" value="" style="shape=image;verticalLabelPosition=bottom;labelBackgroundColor=default;verticalAlign=top;aspect=fixed;imageAspect=0;image=data:image/png,iVBORw0KGgoAAAANSUhEUgAAAI0AAAA2CAYAAAD6UxoTAAAbUElEQVR4nO2d2bYjt5GuPww5k3uoKvvIfUpeWnoRX/sF/Mp+BLvPRbu12suyXLUHksmcAZwLIAeOuybLLcnQosjiAEQGfkT8EQjkFn/4wx9cWZZIKXHOYa0FwDnH5zQhxPQspZz6HPtd9j9+d/m+EGJ6LJsx5uA758ZctnHMc32N/SzlOyfHtbHG/o/lPr7O4/FHmY7HW8q7/N4lOeaxw0Oc18Ml/XxoU0qTZzlff/1b9J/+9CeGYeDt27fEcTyB53MGOCfosYLGiTr+3jXQjL8bFTX2cU1Wa+3FvpZjX/rsknzje+fAdU6e5fvXQHwMkHPvHQMWLHBZB47zi+ylJhBYa2maht1uxzAY9vsK/fz8TJ7n/Pa3v+Xu7u6LgeVg8CuTdfz6JdBYa0+sxzkrcMkCLPtaWpqXQHPps2U/y3EuvX9OB5es7zFojhegH8MCV+S98tmlJhATBod+4OHhgf/6y194/vvfef/+HTpJEn7zm9/wu9/9jrdv36KU+uhBzgp7ZgUeK/yayb0ECGvt5EKvreqxn2sTd+yezsn/0vvXwHkNtC/1fQk054E/Ps70yZEOrlik8AUE8zhN0/Ddd/+N1pqqqhBCoKMo4vb2lm+++YZvv/0WrfX1Tl9o53z5+PxzAc3SfR9zwA8FzTVOM/LAS+7p8DdL4BzJOr73Mfx01HsAV1VXOBz/+Z//jyRJwAm01posy3j9+jVv3rz5IqA5B45roFm+fsk9Lcn6NZJ6jXAv3cclbnHp2o5lHN3l8bUe6+Kce3rJXZ4DzamuXgDNRwY0QggQwncnIKsy3r97T54XKKUwxqKVUiilLvrcL9XO9fk5hPtDf/slSf3HtC+lwy8h/8dI4lwAmgMhjxZlwKYewTKie4xOfqx2zkq89NmHRE0vffeSyf8QWU/Ca//mSV9+pZ+/lnPtnFVaWp1z8jg39n0m4gOcAPExsHFBjonbSJg4jpdBL4W8JuD/lvax8r1IPj/hN2ddxfjvk/7Dqv1AmY8ty4fLciE380GjLsafSLVbcJvDXvS5ZNJlwX4+bWYB7mxEcayFlzRw6fNl+Poh7VN0fc0zfGx/Mw78w9rAIxeRmvwQV/Rjuqsft10KU38+7VPm7izQ3Bi+w0mseS2E/fm1l13XzwlAn90C3zkbX/98QXKu/ZKu9cu006zWv9u/25XmnPtlg2a0MZdI72nc8NNr/wyv8Xnp359wO5/ZOPz8p9J+bDrxi7Y0y/Zvwvvh7d+gCe2nZFn+1e0XD5qfA2/5sds/jdMszf25SfnYjOvHj3qtiS845i+vyS9Johws0s1hu/9M7di5qf18TnGpB3fh8c9tP3WOdAkXQoh5w/JLNOccvRlQUqKQDNYghEBJOe3vLJV5drPw00Z+4d/LsseX46YvoY1lH876EpXDN49/4C58JM68+nHaccXg+NAwV8Od7FNc2ro9aqEUCMtY+ui35G3Y9XLOIV8sRZhB9XHKuQSYxSQc+MrLVbPik2U4L4IDrPWbfuCBI+S8bzyNIUIJxUK28Asubaj+K9pYCaHHSrixGm5qxybhgtxjDaoluCYWAAobXM453BKtQYCjernLg1xs11xSeOVmKyMOKktOWddng4UZoCK8Ns7RDwP9MOCsQ0eKSCsipZAHEgW3KU4tjftfBBwAPVqYT3ZRzmHsCBG/kiwOY42/+KAEi0M4h3DzOShOxnRHEzu3l6tFjs3iDODpU7H89tLsf3ka7sRsbfd9y3azo6lr8izjZrXipshnPTg3uSfhwMnZessjt/6vho5zzluazzuBMNayzhPUDwNd19EPA1opojgi0pEH5gsM0R2t92Wq/yNKr2bAiHn1Xx/6E+pYzvx7WRlpgd5ZyqbhYftMudmyLlYIAWkcoeP4VCfitM+TMb6I9B/frLXs93sPms8iwkIgkVhnPX8R0LYtu7KkaRqSJKbIC0Qq0FqjzlT+X2uXlHSs53MEe3RKTniStQy0l27k1OJ9mFxnXwd6Yqyls4Z927Kt9mz3e/Z1BQiKPKctelIdIdVYpBXQLYK1mcDuILjyU7b2IcUdp9b83C8/RAPGGA8aGGtNT08RfEpzztE0DZvNM1VVk6YJpjeYwZBnGWmagpSfNFHTGMxcZS63FCdKndUzT8w4qh3TAoD8uOK6i80TXn9CoW47tnXN877kabultwYdJzgp6YeBtuswWYpCLk4AjAffRKiW8ycnJXIG1hldLJ3t0tXaZa0vgWuG4EQIiRxPO0x6WPa/7FGE6/OnLfV4DOP4lOEHNzeeerSTe6qbmt1uR5pmaKXph57Hxwf61RqALMtQSp5VwnETR89hSGwg2EIyFXcvIe/zRdZP5LhiASUVUkoGaxH4wu1P4QvLle9Jr59kZ6Hreh4fn3i/feax3LGta+IopshztJBYoB16TLDMY9X/3LfwsjvrTY4EKS5b6KmAXTBzIOd5pRQSKSUWv5ibtkUgSJOEJE7mYnYESOEjvKPrxDFx0SIvPGiccy+D5loEFazUiOSmbanrhru7e7Isw1rL03YLDuI4Jo4ipIhOlLUQ84V3ZuAQVopd2hXh3UPfD/RdN60uay1RFBFFEVIIpFTeFbhPM3wnGR8X3FLfs9lu2Wy27Ko9ddeR3CVkWQbWR5r9MGCwWD9Xh2eXFh07lue8zlvoiU+GsH36nfNxrLUOYwyb3Zbn5w1aae7u7tBRhHBi+r50bmGVWQR0/g0lFUVR+MNy504YntXQ2fcFQkqvDGMZjKHvB4y1pGnK/f0dAtg+P9N2Lft9SZamKKVOxj2MaGa5L8+nB7xxdorWfDJR0Q0DdV2x3e4ww4C1jmHoiaKIoii4u70jlmqyUNc40jVVTN8d9WCsB07XIYUkz3IsgixJyZKUoesAnwQ1ixTFaKn9HFqQAum0J9TGMBiDUsuTGIswPAjh8LoQwTz46M1iBkPTNPzw7h0//P0H0iRBSsl6tSbSke/ihZUjECilyPJs5jRnk3sf0hZaN9ZRNy2DsSgdEScpURyDg6JYUdcVVVVTFw1RFF09zXkVLG5MjgmGwdD0LWW1px96nHNEWjMMA03dsCtLhAOlJMZ45fV9T5bl/pDgeJsRDoF6qLDDwR2H3MHh3aEQQZ6mxTlBka94lWdYAXmeEUcxm80zQ9cxmIHODMTWIKQGIacLM2EM6xxt21JVFX3fe6DHcYh2jyPRmckZY+mHgWq/p+06ur6jqRuGYaBYr+jbjq7v6YeeSOsXXB/zOSjhgaPHxN4JaI6d9gvNGEvTdGx3JS6AJE4ShJA4Z1mtVvRdR9M0tG3LkGUXhVw2cQU+zkHbdez2JWVV0rYtxpjJFRnjTXMSx8RJjDWWpqmp9jV13RAH4I4jXLrcWYLjmMlLZ613BUIK2r6jqhuElBTFirtXd8RJjNIKYwxtXVEbb4mrpkZKgSX1yb4weRaLdY7BGHb7PQ/v39PUDXGcoLT2YD8J3/wVWGtpupa6rtnv9/R9z2AMwzCQ5jl5UfCPf/yDru9pmpY0TpBqdntuTBkEQ+CcTx24EBY6QA8hpwKcchpxPIVnVCq8r23bns1my7uHB+Ik4Ve/fk0SJ1hjsMZQrArKsqQsS7q+n25OdHgi8fB5DpEPp80BBr8id/s9j09PyGC6rbE8Pz3hnCNNM/7PV19xf3dHnmUYY/jhhx94fHykLEuSJCFNT8F7LqS9tG6c8wvGWIuOBU3bUVYVOo7J8ow8y0hiBVLQD97iGDvQtjXPmw1d37EqVqxWKyLlLa9FYJyl6Tqenp/569++pyr3vH7zhjzLQccn8+TJs19E282WXVmilCRNfcSqowilNW3X8u79e+qmodzvKfICqZSPpA50ELjRxAc9Lxqs8We5R25hrWUYhsWdC/zjMJXqAgrHiRRY5yOGtu2QUlOs19y/uieKIgR+30kKOd00qalr9nVFHMeelI5nyReTZqfe3bTxKYSPdFpjqIJVa9qGJE1ZrwuEENRVRVPX9J03vTfrNXmWE0WaKNIURTG5qMEMCCmQPkB5ORcyInahDiG860MKnBNUdc12t+PV69foOEJp5Qm/AKUU61VBEkc0nXc7VVVTNw3GWYo8J4piBusX1GAsm12JMZYkTem6gaZpUVKhA8BcILvDMNC2LdvdlqbrUErz6u6OJEm9DEpOnO/t27eUu5LNdkuaZdyKNVmSzJfowIWo0zo7VS6MbllLKSfQDMMAgJISqSTOSZwTwXKJCX2TnQqDGGPp+oGuH4jTjKIoyLIcYS04E0ivIgkgaYPC0iRFSIleHAl2S8HDLNpQAS9CwqvtB7ZVxfvNM5HW3N6suLm5QQpJEsU0VU3XdsRJEgATIYQPr5MkIUlStrstXdvhrPW8RszXs2xLEImjxTKhzOFdX9fRNh3OQZwkxLFP3o2/UFKQpglJkpANGQJB13VUVY3SWxyOPPcXagZD07Z0fe/7iiIPjK4jSRKU1IAPq6011HVNWZZsyx06irhZr7ld36CjyLuX8F2nI16//hXGWJ4en9judn4vbEq8LnJ24WSltTNwTkoj+r7HDAOr9WraWliy9TGZJoSEsD9iraPrBuquozOGm5sb4iSdQkUZSJQSfsKyPGOz2dDUDXXWkGZpIH1gxSKSGQMDIVBKT8RXCOj6jnK/p+t7kiQmTpJgzXz+4f/+x3+ENIIH6uzmmMhvWe7Jspy261BJjAj5k6VlOXBJB+hZuFQHbTdQ7msenzYY43jz5g13d3dkWcICj1OfUoDUipv12udiBOz3e4y1GAu3N7fsm4rNZkuSpKSJ5zx93zP0A5Lx3jVeHjNY6qpmV5YMw8DNzS3396+QIdCYLagI4wuSJCVJU8p9idYKHUfkaY5aHM92C8CMD9xR5V5Zlv7eamagKFY+m2vtzKDlbAmMNQzG0g/eVVRDhxGOJEuI4rHbRe4ESJOU1WpFta+wztH3HcNgENIghMNZh5ByKh+wzjGEOVoq3kcUe6QQRFoTBfcmhUAqhUrTCXBirOUJHURasypyXr26xwwD33//d27Xa9IsJYpipNahjGOe5PEh3SHvsw4GYynLPQ9PzzRtR14U3N7fkmUJSsnzAAyyJZHmZrVCKuH5Tdvw9DiQxDH7MBdZlpIlGUpKdpuNB84wEEUaIfy19X1H23YM/UAURaRJTBJyUcfXMGaf0zSlWBU8vH9P1dRkTUMUJUgd3HVwt2MydPJIx6Dp+579fj+VMESRRkjJdFc3JzA4OjNQdy1101K3LU3bUXc1QguSNCbS+iDjMvKVJI4oihV5XmKswRhD13XBskis9ctQSjkpXAqBVsqvAOdLLtq2o20a0iyfzKrAg2YEnIfsIR8TMPEa52Cz2bDbbkMInpFnOVlReJ4l5QTWY0shvCpC1tWyrzyPieKEPM9Yr1cscHoKmBGEUpKliSfJXU/XNOzrku1mS7nb0bUtr+/vWa1WYGH79EzXdbRdGzaBPbiHYWAYepy1PnmqI3TIdJ/lZkCcxBS24PHxka7vqeuGLM3QARzjnI28VkrPS504OpYbxzFJklCWJXEck2U5OopASpwQOATd0LNrGh62G542z2x3O7qup8gLfnX/ijSKiJREOIcVEilCARagtSbPMu7u76jrGjMYqrpG9z0ISdcPDMbgHKRZilaaWCvyPMeEXJK1lrZr6buO9WpFpCRKCGQAjV9di7tDiUPQaK3JpSTSfiU6a9k8P7PZbMjygl//+tc+konisDKDsoPrlOGN0eQbB13f03U9t3f3JGmCEOG2amG1ipP4eN7PEYCWkjzLaKqUpm54/48f6LqeWGnWxYo8y32EKwR931NVFUmSEGmFkvNdv6SUnjcGt2StLxkURzoQeIvr0pQ0TemHgbqpqZrMW5YoZt7kEfN/UviaoCVo8jzHGMO7d++o64bdrqQoCgzQWQtS0jlD1bae8VtHFEWAoMgz1quCWElk4MlKzpM5Tp5WilWxItKe2ImJiIeNvqpiW5Z0XU+SJtzc3PA6EMOu63wEpnxUtCoK0oXyZjcmTpf3QmlKSmQkWOU51lgEgt1ux3634zmK6fvBpwusxVoDAtIkIctS0iSeQeNgsJbODBg3kGYJcRIFkPh9o9NancPwSwqBlpI0jljlOabvqeqGPEnJsowskGDhHHmW0jYtZVn6MForlJR0g19sQgqikPybJ3wJljAXUiKkRElvmfp+oKlbqnhPJJR/KMV8w8b5PnwScQiaJIRdu90Oaw1l6RN1zTBQdR0yjnABOF0/EGlNkvhczN16zboovJUJ0ZUaecZiDBkIsVY+2TWuu5F4VVLQdx1PT09EccJgHDpOGIaBvuu5vb0lCcSwKHLSJJ7c13KCLt1zZnI3IZIhRG7WGDbbLX3b0io1bYl0XcdgDXmeYwUIrabJFg56a32IjCNOI6JITWn8y4nJQ66npCTWEUXu96a0VCFlnxNHGi0lInCxvm2p6j11U5CkCVEceZ5jDYhQfjIFMQtNLLLoKlQZ+EAhpdrXNG3DvqxIVEwaJWihjkpTxcSHDkCjlAr7RfdstzuquqbtBjZlyabeE+cFSZGhkxhw5HnBqiiQQlCkCUWaIYVkzK+Mr5dNiHGlh22EMXQP4VxXFLRtR9009IOl3Feox2cf6imF0hFFniOFQ0sR0uAzbzoYi0OffjxtSinSAGBrjOdSOiKOY7+ZJ0TYfG3pjcVJxSAUOOezyUrTDgPWWYTyPMxHSw4pQizmZis7N4v1BQ8eNEIgtUKkGZHyFoeQsveLwaGVZFUUlLsdu33pXfTQI7WkG/qwNyVDXkgebnW4GTwy/M85z1GyNGOrdnRth3CQxQmrLMdFcwJxdE8SgeXMuSelFOv1GhDIck/X9VNIXDU1vTUkvfeF6zTjvlj5KEYpEqkmRYhwsYek9HAKjzPQWnvr4XAgJQ/PW3ZlxfuHR27v7ri9uyPNEpJIo/C7skqKiTO91JbfGXdMpPSAW60K4jgO0ZtXvLE2vFY0fcfzbsvTfotzjpv1DeuioK1rjLNhT2i0qW7iQSIMJk6kCGURjDXTMhBYBVHkNzNDtKYQCOV5Txyq/aw19EOP6ATGDH4OosgvIhlyakIsU2ozOQsySCHIsoyb9QpnDFG406vWej49cRh6+W2EY8VKKX2hlBMIodhXFblz9FJQdg1mMNh+IFvFrOOUdZwiCbkHIcBZXzAtrq3zMxMa3ESaxH4ipaZuex43O9q64ebujtV6TRRHaCVRziHdeAv7Dx7mcEwC0RWQpp6zEJyKdcInFcf6m92Wh+0zm30JztEHDtFWlQdNkBsxW81L0dNBZjRMpESA9PxGMG9NIMYIRkLkrWCkddjr85uQzlqiSJOlCTpYGnE40iTJmKL1Fl+Qxj4RqJXnMWmSEsX6YP6WeTM4A5px8rI8Q0cxSZqT3XQUbcMPmye6uiEWinWasYpi0uDbReje7/b6YqBzB+WuTqIArSRCRBgLURThEPTGEMURq5v8oLpsTJx9LGYmMx004sspvPuDsK/lwBrI0xQpFfuho33sef/8hADiLCXLM7qmRuFDWKnCTjX2IOo629yS77hglUKFnbV+EYaNxDFTrqQkTRLSNGUYesqyREnPobI09dFkiAoPz5ktxhIzTxld4Loo/BaGlJN+nV0CZnzt53O6UaPvY3koykc6WZagbYROYoSS9F2HdoKboiBS2ifkgnJG8Igj/jfVup5R3GkewftarRSrPONX93es85y7IicWAmywBc762l8cvLC1Pyts5jnjs4NgIcRU3jD1JkAoQRRJ8jhmnWXchQhTWUtf12AMcRqTZ6m3EmGrYXK9V0jV8uot88H6sbRlJJ6+oMonO8d6oP2+xBiDRJDladi6yQ4W1fKO5ZO1cPP1S+E5ypQEXMo8yuccbqyEcL5CU1++i7gvpYykQqFQkUIpH2VIB0mUoJUMCTefLV2mUUdUjofnDicRcJe0OecublcFwsFgDPerAm298oSzgZK5BVdy4wVc7HepsCWYxrU3xzSz2wLQUpCnMW/WN7i+p2kalHMMVUUUaQ+oIkcHThdKhedxrpnbaSNwXNULCzGl9AkbmMbzvjzDheSoVIpVnvvd9Cj2P5kWo1vo2QVSPstzuGDFvLgt0++mqkxnJ/CcnEYY/9SNC9vhU3ZYSHQS0vPj/EwliuGypycv7FS87a7rbVZeyOE6R6Qk9zcrbterYEwkwhgUbjb900Ky/jDeONgJcA7V447emanFPGHTGnA+ObnKMvSb16zTlMeHB7bbDV25J7+7oUgzboo1WiqcMwcu86S6xB394wzIRUjYOWsPPjdm8K4oS0lDekRIgVZ6uuu8sw4r7NlIcrI0YaF73np04jMAZ/IWzrsqZ0ONkjUeNMYYqqpit9sF5jxnX6c7VYulKhhHnxAp5BjHL0xuEPBEV+cu6OB5lHj5zmLFMFpEt/h8NLGcnYjjtoxnJuIaCOS44OZV5h9mMH7n3hrq/Z6yLMmzhL5tqKo9WqnZAoykyc0yLgZfXPzhqdPjw3Hjdxz+pKZ3EW556djBHEz+pesfjYMNcjnEgTsb82U4DxolFW0oIzHWAJ5XaWN8Eu+7777zvjogdj6qO/OcE8Uv+NAYui6p1+SezilrocdlWm7O6i6+sBhv1kkYSywB8CGRlJiq0yaRAhkek1lnQWMt1ji6ruP5+Ynvv/+e3W6HMT11VfH+3Tt0pLEmgGaM6g6s7BmrEi7Ig0bO8i9c6agUu5Bn1MdBj/PFnL/yyd3NlOHk7uiBk4EHTd93/PWv/8Pj4wNd2xInMbptW/72t7/xxz/+kfv7+2nVnYLmUIBx0Oku1mdOM4xm0B1q7kRry32YBS3iMmgW74tF1+Lcr04HdIsvjcD2oF+GqkGxo1k2BjMM097P49MTTVPz39/9hdVq5bPcWvuN2MFbmqUtXF7VGRWAEAc3STj8yy7yRF43T8D0fPxXYo7HFWK22JO1OpjbWQZnDEL4uurHhwf+/Oc/8/j8yFdffYX4+uuvXV3XfP3119M2wjFoZityKCcsLc3RX2cLSp+Uf7XNzGwJmgMCfamTJWg+2dLMf2NpKf/kz13QxeimjKVpG4ZQoK4jzym0ni2NGCseX7x2gvc/sugHoPH04MTVj4tofDPwudNEhzgI/8drdnBQ5ikZra3AhnJcXy/VsdttMcbw7bffIn7/+9+7x8fHqRRzlmc+b3PpTNRyIpd/1OoAzVzR24SV2RIdsKaLK2dhak8/uGhplspcMqTpVijy1D0452Bxk4SR+7jpzyLO/WqlfLGSsVM/bjnYhXYM2HAZ81hHbgnBlEcBprzMITnwX3SM7tV7A1+RuVjsoxVzhxbcGjMdNhjly/Ocb775hv8P/hxbS1I8gLYAAAAASUVORK5CYII=;" parent="1" vertex="1">
                    <mxGeometry x="202" y="-1120" width="141" height="54" as="geometry"/>
                </mxCell>
                <mxCell id="131" style="edgeStyle=none;html=1;exitX=1;exitY=0.5;exitDx=0;exitDy=0;entryX=0;entryY=0.5;entryDx=0;entryDy=0;strokeWidth=2;" parent="1" source="119" target="121" edge="1">
                    <mxGeometry relative="1" as="geometry"/>
                </mxCell>
                <mxCell id="119" value="" style="shape=image;verticalLabelPosition=bottom;labelBackgroundColor=default;verticalAlign=top;aspect=fixed;imageAspect=0;image=data:image/png,iVBORw0KGgoAAAANSUhEUgAAAI4AAAAyCAYAAACK9eMGAAARdklEQVR4nO2d224rx7GGv+7pOXMoLe/AiW0Evg1yl6sAeY48b4BcZe8AeYIAQbCTDXg5FkWKQ86xu/dF95woikta0jrYVsFcIufQ09NdU/XXX9Vj8cc//tH+6U9/4ttvv+XXv/41X375JVprtNYYY/j4Yhe/hFj88p/59+H45XnTVou1077596EVObuGsPP2T1u0fo8EBEJI177fPm/bDN+FwPq2hBBYO50xfAeBlJIgCBBSoLWh73u07gEIpCSQweIepl4KxGyQhJg+w+CNe+39u7ok1rqxk1Ky2+34/vvv+e677/j2229RYRjyi1/8gt///vf84Q9/4Le//e0nUphTsTOlmd+u4PyknmuB2aROx41zOrQohu/icYMrBGJ2lG91pkKTEtnZxE77JoW2drigO85iMcbQ9xqte4w2COEUS0r3VwiBFBK5fKoQQhBIgRRLZZrf6/vKP/7xD/72t7/x5z//mTiOUVJK0jTl66+/5je/+Q2/+93vnnmJl5JLinO67fGKY08Odw+mWDyVp60vREx7BWJUmqH1uaXz/3mFWLboFMcpmLEWbZyV7/veWRtjsMaNgTVOwYSUhKEiCiOiKCKQSwUWglFpTpXq4j09QuI45u3bt+R5ThAEqEHrJ62W7sasvWfWP6aIyQwMW2YTfjoEc5c1bXJbh0m27ulnUqazTun0smc7xzhh89axbvJG5RSznp08BFIIsBZjQfeGruuoqoq6rmnadnQRSZLQ9z1t2yIQxHFMllnCMERKhZz52UuP0tCP5yiPtc4aWmtRw4a5DK7q1Nx9TLl/6XfN6Pmd8sxuu5j0x7Z0sXPTk39PYQfFcRplsLRdR9O0dG1L27W0XUfX915ZAvIsJ0lioihCSEnf9zR1w+Fw4O7uju12y9e/+hV5nhOGobOYo9WcLLXwnRGnfXmkzI2KMWaBfdXoi61dfMQZP/kp5fm2b2nS7299vszHa3Ra3rIIwFjD8VhRHg5UVYU2ZgSxAziOwog0TYmThCgMsVi01oRKAaC1pq6O7HY7+r4nzzLntoIAIeUCty39r3iWxRn0YmFxLh14blA+lFxSDvueqjOcdcnGvPSdWWu9UjisYRyYoes6bjYbbm9vqauaLMsortYURUEcxwQqIAgCD4CdrZRCIJVyShVFFKuccl/yr//9F9XxiH7zhvV67QCrGMDzMqpaDMQTZLRkMyMy/H1QcYYB+BRW56F7/HSI6/FirMVaQyDl+IQKIdjvS25vb9lsNggp+eKLLyjWBWmaOouhFEKKpduZYSQXMUlEGJFlGW/eXLPf7/nhPz+M+DQMw/NB5zPkofm/qDifQn7MSuPEji7B4tyT7jT7/R3b3RYhBKs8Z72+Ik1TVOisiQyCRRR51p0KQRBI4jjizZs39F3Pbrdjf7cnVMp9ovCjPOyfneL8+MVNurYuwDDGsN/v2d3dUdcNv/zyl1xdrUnTFGMty3D6foRkT34jBGEYcn19Tdd1tG1LWZZIKVFKUQQFUqiX978n8qo4Ly6ebRWCpmnYlyWbmw1Ga66u1hTFiiRJUEr56HXgXc7P9UNUZyAFV+s1Ukg2mw3GaLbbLQjI85w4js6291SA/NDxo+Kci6JOAdHHkNMn7dx+x5PcP8LMAP0C2J2e68k34YHEQ0HA4HTOTsDsOvNtA+eiteFYVRyPR4zWpElCvlqRponjYAI53uxTItj5UUkcI4Wk7zv2+z1VVXnXJ1EeaC/IzRcUNXT8Xgc/ktLMNfqhp8tRsANpJzzbej8torWm19oBySBwYFJKlupopzySR5/WmonrmKUHzJATOjP4FrDGjIQpOLdU1zX7/Z7jsaL1RF5RFF5pUk/cufbkGP483QoACCkIQ8V6vaZtW6rqSFmWqFARRRFRHKOkUx6XgpvY7EfJBersoqv6GJbmlO08l5TstUb3PVprEIK+6+n77l5bxkcx4MNYKQkCNQtxHZFlcazsAChPQ865DP1xZNp9BdJaj5amLEvKsqSua4IgGCOmPM+I4wQVOqZ34FhOCbqnjJlgSKRa4jgky1KapqJuWqqqcuF5GMIsOQpgn3CpS4eeVZxPFYIP+RtjLUZPuZuu7zF+ghDC5XL6/nxDvu8aP8Cyd6kUIUEIrDUYj0GCICAMQ+IwIgxDVBDM+gJm/LXk0uzAovY91rhMdtM0lGVJ27YApGnqiLw4JgxDAhUgZeA7JWZdfeZYC7ySJjRNRusB8+F4IElTAhkgguC9ebCH5LMAx8NEOdLRJfXatqWua+q6pus6l1gLQ3+C9YnDpQQyGEsTjDGOJjca009ubbBKAwMaBAGr1YpcZO5c3xeNxTDHPq6nxhq6rqWtW/q2QWtN27a0TUvbtoRhSJZlXF9fjyB4sJSunZchWgb9G+KyKHL8zuF4pO1ajscjeV6hvLW1PgnyUkbhoynOJbA7RCLWgtb9GI00jZuYQEpUGDp21SdixQxbDDLuExJjnXJ02lmrIfQdMtFt29I0LU1TU7ctbd9hryAKIxACg0X7aRGe/e37jqZpqA5HuqbF9BoVBE4BVUARF2RZRjZLA4CfrNEVvqw1FzAmROM4ZrVasfeWb7vdggVZTAnsD6o4L80Yn1Oa+bahvEBrTVVVHA4H9mWJEIIoikiShCSOCaPI4ZZZFn8uYjY5Q11LYF3Ya41TAotFW+PcRxBQ1YLj8Uh5OCCDgCzLCAIFcgLuA4ZpmoaqqmiqGmEMSjorGPhamSh0fY3j+KS46gMoy9S4ny9JGEasVit67+KPh+NohdPERXMvJe/MVT33ps/X590ntqy1NG3Lviy5293RNA3FumC9XpPn+Yg/AMSZIibXpmt1nt1XgXJWY/akWywmsQ6DVC76qZsavdX0Ro/AUkqBNU5pqrqmqirapkYYSOOYLEnJ0owoDFFKPfKJfldu/unisJxASEUe5Git6bqOu7u7iRwMpjyYFPOH7unox1o71eM8dMC9Tr6HIi2sy6L0CYwvXtHGUFUVx8ORpm1I04RiVXgLECwjGjG/3TNUgs8TzcHnfHiGModAKbIs46uvvuLubkd5OLDf72mahih2gLlrO+qmcfUwAqIoJksSsiQljWI3GULei8oeGlMxbl7uf+q4zs8WUs7oCkiThDfX1ygpqeqaQ1mO2fUsy3xkN2BEwXmfcFlGi/PYwq3nWCF7qt3WYgCjNU3j6k2atkFKyapwShOqcEb0zK3G9O1cOHsOPC/2gyu/VO5pxFqkkDRdizWGtmnou462dZ8gkCRxQpqkpHFMEsUulP9ckmi+fGNISeRSjjzR4XDgUJYEnoII4mSsPJRSvpfx+4jgeFLMJb5xEdTxcOBQHrDGkqUpV+s1SZI865oPPUvD9nmIvc5XFGnO/njgWFc0dU3btvRdhxSCIl+xWq1IkwSJr+s9KUF9TH9eSu49hEz8jpCSUEqConDBgNaUZelLTyNCFbrI0WhXLPYePXtQcT5GIZed3dTtdovWmnyVc311NVa2PVfe1cIw0ABIQZ46i2JWZuR8LLgnVSkCf+wwSZ+wuva+CDHey2BRi6JAKYVSirIs+ff//Rutf0WaZqjQBQ5SypGMfKx8UgLQGMOhLDkcDrRtS5IkjlPJcx81PbdK9mGZW5vxtxCoIEAEChlNqQd74g7tLAWyaOszkHHu/NAppcZxrY4uJXFzc8MX/wXX8fUQ0i5gwGPkfkzLjJC78Hmvm5oPvq+I29zecjgeUUpxdX3FarUiDKOxH/NE4LvafN8pHMhARnc6udRBSUY3MO+YffwVP8TDeK7FsY+CsZAM3CqFPM+Jo4ibzYbj0YXqE7Y9mdUzm+b5y/fCOO8Cned+D8uHBtB6qCq22y13d3cEUpLPiDM5AjsefBIe9stP9NiCsVZXIAjELGs9HrBsUYwg6dPZmmFpzjlSYjxGCgLhor5AStbrNX3fc7ff+xqh3Zh4nVOT1lshl1mflGWoi5ZSIp+8BOa9xspOeMEYV3y037PbbjF9T+Rp+jAMUTIYE5QfK8l6WlO7KK764D14eVmE6n4slVKkacr66or1eo3uNbebDX3ncn7CW1Br3BxNVnhqZz4fsutOsswnIa8VJ5/5vpPPpTtxOSJN1/ccypLddku53xPFMXm+IkszVwYxGJqnjtYz5DEAeiGfEyB+jAhGFr5Yrfj6q69RoWJze0vXdaPLtb5e2uXy7GyJ8iQDi67+/ve/X7rei4yREAIlA7q+41hVfP+f/9C2Lev1muvra1+xFi/SCD+2ufncZRhPpRRFsaKqK3Svudnc0PfdGH0FQYBSasTL1keV81WmVVWh7u7uWK/Xi4u8lMIMYryWHg4HdrsdTe2Y2XVRsCoKojAiCIYVpGDF5WjqpazRj9ENPUu823KWp0APxOvxiPDEoVIufTJhGkkg5IIgttaioii61/48mnmqnE75wNUcqiOb21t2ux1hGLJarSjWaweGxVS+aYVbFnsZ3nyYcsifipx78Aegb30wkK9yZCDZ3t56Lu3gy02nwrc4jl156oxTE0K4cpFvvvmGzWYzwylTjHk2q+3LEgbiTA6lAtaivY+UwmWvrbVUdcW+LNnv93RtS5amFMV6dE+BB8HDjY0JSa+BZ9MJzx3ZZ7b1Oa1wvS9i9u+5vQ7khkoh0hSspe814DLsA4apqiNt29B1CVma0XXdCJjDMES9efOGzWbjCa05FDp/6UVOyxiMD2WH7doYDAbbW2pfFXc8HOi1Jowirzh+5WIQTHnrWULyY8U0n/P0f0gRCIQMCENBluWO6/GgRmtN27WjcTDajNWXQ2SllEJlWTY2OL2v5QK+8CcPsb7VesxGW2uxxtL1PU3bsN1uOR6PWGNYFYVjhf2Cermg7n+uU/hpZHI7kmi2jEYi0MYQ9a4IzfROeQZqZP5Gkyk7Pvs8OI2eQZVi/pYpAFfLOyDu6nh0tStdRxiGJHFCsS58ncvEOYpXlfnEIpaMOG5unRvLsEN57Un14H3m+J2aw3ii8PSptWB8KWbtSyPquqbvOmJfB5tlOVEcjaDrUzKur/IO8XhTqQDsVDwn5TKyenLKYcBAg6Mx1jHBw+Kzuq4xxpVmXl1fU+QrkiSmN8bh7g9Ue/tzlJemTSzzRY323uvi5q/BUcMJl1q7V/lhLb3RtG1H0zbUvvxS+xWLcZKMtbehUosc0Bz+PlzD9yrvkjFd9kLtGTfRAGOkfCl6VJcTlsJFSOCAMIxripq6oaortxKh78e4P89z/1KgaPSLLh+4jJg+XMHEz0de0uLMFdHB1pO6g5NclRryT0Neai5j9YBx64mstfRdT9s041rlvu/dSoQ0HaOmIAjutfNQ1vxVnicvN47iQeh5uk5+eiPXQrX8wb4ORfo1RkabMUFZ+oLuMAy5vrpyBeVKuRUFr8D3ZyFOcS7Yu2GXsZa6qjiUJUdfeDWQeVEUedMmXk3Jz0TUQ0ozKMH00kDN4XDgWFUYY8izjMKvRDAzU3aJmXnVqZ+O+Khqpj122mKtJRCSpu3Y3+3Zbreu4r8ouLq6Io5jLIxh20MczWvw/dMTCbNJtWCti5qsce+MMdZQliWbzYau61xKvihI0tStdhTLdclzJvKUlXyVH6fcq5AU45vbh2DMFTcPL2sWQNt1bHdbNjc3qCAgz3NXUK7CxbLSebj9qjQ/PREnBkK5tThuPc5YvOOOpO07bm5uaJrG1av6ddzu/yMgz+IZe+YbvCYyP3c5V3t++rL0YGYolMDH535J6AB0h4TlUOhTFAXFajW+d+5UD07XhM92eELp/FLdV/n0cundAfOqv7koi1u7XVU15b5kt9uBhbZt2Zd7vnv7lizNyNIMrc2Y9V68ZmSBrU8tDQj7uRc/vcpDFmeQ/X7P4XAYca7quo4ffviBv/71f9hub/nLf/8Fo13isqrdu2riKCbPM//iw8mlcQKYBAJj9HJ5xuzvq8X5fOXSMilrLW/fvuWf//wnb9++5ZtvvuH/AfSvch7lvNWXAAAAAElFTkSuQmCC;" parent="1" vertex="1">
                    <mxGeometry x="198" y="-828" width="142" height="50" as="geometry"/>
                </mxCell>
                <mxCell id="132" style="edgeStyle=none;html=1;exitX=1;exitY=0.5;exitDx=0;exitDy=0;entryX=0;entryY=0.5;entryDx=0;entryDy=0;strokeWidth=2;" parent="1" source="120" target="122" edge="1">
                    <mxGeometry relative="1" as="geometry"/>
                </mxCell>
                <mxCell id="120" value="&lt;font style=&quot;font-size: 18px;&quot;&gt;&lt;b&gt;ST Embedding&lt;/b&gt;&lt;/font&gt;" style="rounded=1;whiteSpace=wrap;html=1;fillColor=#dae8fc;strokeColor=#6c8ebf;" parent="1" vertex="1">
                    <mxGeometry x="385" y="-1120" width="149" height="54" as="geometry"/>
                </mxCell>
                <mxCell id="133" style="edgeStyle=none;html=1;exitX=1;exitY=0.5;exitDx=0;exitDy=0;entryX=0;entryY=0.5;entryDx=0;entryDy=0;strokeWidth=2;" parent="1" source="121" target="123" edge="1">
                    <mxGeometry relative="1" as="geometry"/>
                </mxCell>
                <mxCell id="121" value="&lt;b style=&quot;border-color: var(--border-color); font-size: 18px;&quot;&gt;ST Embedding&lt;/b&gt;" style="rounded=1;whiteSpace=wrap;html=1;fillColor=#dae8fc;strokeColor=#6c8ebf;" parent="1" vertex="1">
                    <mxGeometry x="383" y="-830" width="149" height="54" as="geometry"/>
                </mxCell>
                <mxCell id="138" style="edgeStyle=none;html=1;exitX=1;exitY=0.5;exitDx=0;exitDy=0;entryX=0;entryY=0.5;entryDx=0;entryDy=0;strokeWidth=2;fontSize=16;" parent="1" source="122" target="136" edge="1">
                    <mxGeometry relative="1" as="geometry"/>
                </mxCell>
                <mxCell id="157" style="edgeStyle=none;html=1;exitX=1;exitY=0.5;exitDx=0;exitDy=0;entryX=0.5;entryY=0;entryDx=0;entryDy=0;strokeWidth=2;fontSize=16;" parent="1" source="122" target="156" edge="1">
                    <mxGeometry relative="1" as="geometry">
                        <Array as="points">
                            <mxPoint x="775" y="-1093"/>
                        </Array>
                    </mxGeometry>
                </mxCell>
                <mxCell id="122" value="&lt;font style=&quot;font-size: 16px;&quot;&gt;&lt;b&gt;Dilated Conv&lt;/b&gt;&lt;/font&gt;" style="rounded=1;whiteSpace=wrap;html=1;fillColor=#f8cecc;strokeColor=#b85450;" parent="1" vertex="1">
                    <mxGeometry x="603" y="-1120" width="149" height="54" as="geometry"/>
                </mxCell>
                <mxCell id="139" style="edgeStyle=none;html=1;exitX=1;exitY=0.5;exitDx=0;exitDy=0;entryX=0;entryY=0.5;entryDx=0;entryDy=0;strokeWidth=2;fontSize=16;" parent="1" source="123" target="137" edge="1">
                    <mxGeometry relative="1" as="geometry"/>
                </mxCell>
                <mxCell id="158" style="edgeStyle=none;html=1;exitX=1;exitY=0.5;exitDx=0;exitDy=0;entryX=0.5;entryY=1;entryDx=0;entryDy=0;strokeWidth=2;fontSize=16;" parent="1" source="123" target="155" edge="1">
                    <mxGeometry relative="1" as="geometry">
                        <Array as="points">
                            <mxPoint x="775" y="-803"/>
                        </Array>
                    </mxGeometry>
                </mxCell>
                <mxCell id="123" value="&lt;span style=&quot;font-size: 16px;&quot;&gt;&lt;b&gt;Dilated Conv&lt;/b&gt;&lt;/span&gt;" style="rounded=1;whiteSpace=wrap;html=1;fillColor=#f8cecc;strokeColor=#b85450;" parent="1" vertex="1">
                    <mxGeometry x="598" y="-830" width="149" height="54" as="geometry"/>
                </mxCell>
                <mxCell id="198" style="edgeStyle=none;html=1;exitX=1;exitY=0.5;exitDx=0;exitDy=0;strokeWidth=2;fontSize=17;fontColor=#3E698F;entryX=0.997;entryY=0.273;entryDx=0;entryDy=0;entryPerimeter=0;" parent="1" source="136" target="159" edge="1">
                    <mxGeometry relative="1" as="geometry">
                        <mxPoint x="910" y="-1093" as="targetPoint"/>
                    </mxGeometry>
                </mxCell>
                <mxCell id="136" value="&lt;font style=&quot;font-size: 16px;&quot;&gt;&lt;b&gt;1 x 1 Conv&lt;/b&gt;&lt;/font&gt;" style="rounded=1;whiteSpace=wrap;html=1;fillColor=#e1d5e7;strokeColor=#9673a6;" parent="1" vertex="1">
                    <mxGeometry x="804" y="-1120" width="90" height="54" as="geometry"/>
                </mxCell>
                <mxCell id="199" style="edgeStyle=none;html=1;exitX=1;exitY=0.5;exitDx=0;exitDy=0;entryX=0.999;entryY=0.729;entryDx=0;entryDy=0;entryPerimeter=0;strokeWidth=2;fontSize=17;fontColor=#3E698F;" parent="1" source="137" target="160" edge="1">
                    <mxGeometry relative="1" as="geometry"/>
                </mxCell>
                <mxCell id="137" value="&lt;span style=&quot;font-size: 16px;&quot;&gt;&lt;b&gt;1 x 1 Conv&lt;/b&gt;&lt;/span&gt;" style="rounded=1;whiteSpace=wrap;html=1;fillColor=#e1d5e7;strokeColor=#9673a6;" parent="1" vertex="1">
                    <mxGeometry x="799" y="-830" width="90" height="54" as="geometry"/>
                </mxCell>
                <mxCell id="172" style="edgeStyle=none;html=1;exitX=1;exitY=0.5;exitDx=0;exitDy=0;strokeWidth=2;fontSize=16;" parent="1" source="155" edge="1">
                    <mxGeometry relative="1" as="geometry">
                        <mxPoint x="1000" y="-883" as="targetPoint"/>
                    </mxGeometry>
                </mxCell>
                <mxCell id="155" value="&lt;span style=&quot;font-size: 16px;&quot;&gt;&lt;b&gt;Skip Conv&lt;/b&gt;&lt;/span&gt;" style="rounded=1;whiteSpace=wrap;html=1;fillColor=#e1d5e7;strokeColor=#9673a6;" parent="1" vertex="1">
                    <mxGeometry x="730" y="-910" width="90" height="54" as="geometry"/>
                </mxCell>
                <mxCell id="168" style="edgeStyle=none;html=1;exitX=1;exitY=0.5;exitDx=0;exitDy=0;strokeWidth=2;fontSize=16;" parent="1" source="156" edge="1">
                    <mxGeometry relative="1" as="geometry">
                        <mxPoint x="1000" y="-1013" as="targetPoint"/>
                    </mxGeometry>
                </mxCell>
                <mxCell id="156" value="&lt;span style=&quot;font-size: 16px;&quot;&gt;&lt;b&gt;Skip Conv&lt;/b&gt;&lt;/span&gt;" style="rounded=1;whiteSpace=wrap;html=1;fillColor=#e1d5e7;strokeColor=#9673a6;" parent="1" vertex="1">
                    <mxGeometry x="730" y="-1040" width="90" height="54" as="geometry"/>
                </mxCell>
                <mxCell id="186" style="edgeStyle=none;html=1;exitX=1;exitY=0.5;exitDx=0;exitDy=0;strokeWidth=2;fontSize=16;entryX=0.5;entryY=0;entryDx=0;entryDy=0;" parent="1" source="124" target="182" edge="1">
                    <mxGeometry relative="1" as="geometry">
                        <mxPoint x="1069" y="-950" as="targetPoint"/>
                        <Array as="points">
                            <mxPoint x="1065" y="-999"/>
                        </Array>
                    </mxGeometry>
                </mxCell>
                <mxCell id="124" value="" style="ellipse;whiteSpace=wrap;html=1;aspect=fixed;strokeWidth=2;" parent="1" vertex="1">
                    <mxGeometry x="998" y="-1015" width="32" height="32" as="geometry"/>
                </mxCell>
                <mxCell id="125" value="" style="endArrow=none;html=1;exitX=0;exitY=0.5;exitDx=0;exitDy=0;entryX=1;entryY=0.5;entryDx=0;entryDy=0;strokeWidth=4;" parent="1" source="124" target="124" edge="1">
                    <mxGeometry width="50" height="50" relative="1" as="geometry">
                        <mxPoint x="948" y="-993" as="sourcePoint"/>
                        <mxPoint x="998" y="-1043" as="targetPoint"/>
                    </mxGeometry>
                </mxCell>
                <mxCell id="126" value="" style="endArrow=none;html=1;exitX=0.5;exitY=0;exitDx=0;exitDy=0;entryX=0.5;entryY=1;entryDx=0;entryDy=0;strokeWidth=4;" parent="1" source="124" target="124" edge="1">
                    <mxGeometry width="50" height="50" relative="1" as="geometry">
                        <mxPoint x="948" y="-989" as="sourcePoint"/>
                        <mxPoint x="980" y="-989" as="targetPoint"/>
                    </mxGeometry>
                </mxCell>
                <mxCell id="167" value="" style="endArrow=none;html=1;strokeWidth=2;fontSize=16;" parent="1" edge="1">
                    <mxGeometry width="50" height="50" relative="1" as="geometry">
                        <mxPoint x="998" y="-978" as="sourcePoint"/>
                        <mxPoint x="998" y="-1018" as="targetPoint"/>
                    </mxGeometry>
                </mxCell>
                <mxCell id="187" style="edgeStyle=none;html=1;exitX=1;exitY=0.5;exitDx=0;exitDy=0;entryX=0.5;entryY=1;entryDx=0;entryDy=0;strokeWidth=2;fontSize=16;" parent="1" source="178" target="182" edge="1">
                    <mxGeometry relative="1" as="geometry">
                        <Array as="points">
                            <mxPoint x="1065" y="-867"/>
                        </Array>
                    </mxGeometry>
                </mxCell>
                <mxCell id="178" value="" style="ellipse;whiteSpace=wrap;html=1;aspect=fixed;strokeWidth=2;" parent="1" vertex="1">
                    <mxGeometry x="998" y="-883" width="32" height="32" as="geometry"/>
                </mxCell>
                <mxCell id="179" value="" style="endArrow=none;html=1;exitX=0;exitY=0.5;exitDx=0;exitDy=0;entryX=1;entryY=0.5;entryDx=0;entryDy=0;strokeWidth=4;" parent="1" source="178" target="178" edge="1">
                    <mxGeometry width="50" height="50" relative="1" as="geometry">
                        <mxPoint x="948" y="-861" as="sourcePoint"/>
                        <mxPoint x="998" y="-911" as="targetPoint"/>
                    </mxGeometry>
                </mxCell>
                <mxCell id="180" value="" style="endArrow=none;html=1;exitX=0.5;exitY=0;exitDx=0;exitDy=0;entryX=0.5;entryY=1;entryDx=0;entryDy=0;strokeWidth=4;" parent="1" source="178" target="178" edge="1">
                    <mxGeometry width="50" height="50" relative="1" as="geometry">
                        <mxPoint x="948" y="-857" as="sourcePoint"/>
                        <mxPoint x="980" y="-857" as="targetPoint"/>
                    </mxGeometry>
                </mxCell>
                <mxCell id="181" value="" style="endArrow=none;html=1;strokeWidth=2;fontSize=16;" parent="1" edge="1">
                    <mxGeometry width="50" height="50" relative="1" as="geometry">
                        <mxPoint x="998" y="-846" as="sourcePoint"/>
                        <mxPoint x="998" y="-886" as="targetPoint"/>
                    </mxGeometry>
                </mxCell>
                <mxCell id="190" style="edgeStyle=none;html=1;exitX=1;exitY=0.5;exitDx=0;exitDy=0;entryX=0;entryY=0.5;entryDx=0;entryDy=0;strokeWidth=2;fontSize=16;" parent="1" source="182" target="188" edge="1">
                    <mxGeometry relative="1" as="geometry"/>
                </mxCell>
                <mxCell id="182" value="" style="ellipse;whiteSpace=wrap;html=1;aspect=fixed;strokeWidth=2;" parent="1" vertex="1">
                    <mxGeometry x="1049" y="-950" width="32" height="32" as="geometry"/>
                </mxCell>
                <mxCell id="183" value="" style="endArrow=none;html=1;exitX=0;exitY=0.5;exitDx=0;exitDy=0;entryX=1;entryY=0.5;entryDx=0;entryDy=0;strokeWidth=4;" parent="1" source="182" target="182" edge="1">
                    <mxGeometry width="50" height="50" relative="1" as="geometry">
                        <mxPoint x="999" y="-928" as="sourcePoint"/>
                        <mxPoint x="1049" y="-978" as="targetPoint"/>
                    </mxGeometry>
                </mxCell>
                <mxCell id="184" value="" style="endArrow=none;html=1;exitX=0.5;exitY=0;exitDx=0;exitDy=0;entryX=0.5;entryY=1;entryDx=0;entryDy=0;strokeWidth=4;" parent="1" source="182" target="182" edge="1">
                    <mxGeometry width="50" height="50" relative="1" as="geometry">
                        <mxPoint x="999" y="-924" as="sourcePoint"/>
                        <mxPoint x="1031" y="-924" as="targetPoint"/>
                    </mxGeometry>
                </mxCell>
                <mxCell id="191" style="edgeStyle=none;html=1;exitX=1;exitY=0.5;exitDx=0;exitDy=0;entryX=0;entryY=0.5;entryDx=0;entryDy=0;strokeWidth=2;fontSize=16;" parent="1" source="188" target="189" edge="1">
                    <mxGeometry relative="1" as="geometry"/>
                </mxCell>
                <mxCell id="188" value="&lt;font style=&quot;font-size: 16px;&quot;&gt;&lt;b&gt;FC&lt;/b&gt;&lt;/font&gt;" style="rounded=1;whiteSpace=wrap;html=1;fillColor=#e1d5e7;strokeColor=#9673a6;" parent="1" vertex="1">
                    <mxGeometry x="1114" y="-961" width="55" height="54" as="geometry"/>
                </mxCell>
                <mxCell id="189" value="" style="shape=image;verticalLabelPosition=bottom;labelBackgroundColor=default;verticalAlign=top;aspect=fixed;imageAspect=0;image=data:image/png,iVBORw0KGgoAAAANSUhEUgAAAI0AAAAyCAYAAABhwlgFAAAey0lEQVR4nN2dSY8ku5Hnf1zdPSJyqaontdQ6CFADOuqsi77/peegowBBwOuZ1oKnV5UZm29c5kDSl4jIrKx6pcZgCHhlhqcHaTQazf620Ev89re/jb/73e/4/e9/T9M0SCmIkasWb9185T5AFIJIJMZ0CSEQgBCCW98SAPmZN7fIq88LIdBaE2MkhID3/kt6XxF3RVmee5yuCIu5Rea5juPI4XjgeDoigN12x253h5QghEQIkeYiRB5nPZYoHX4JyUKkfjM1Meb1inHVu0iTm36WZxDQ9z0fP/7IH//4R77//nvu7u7QdV3zH//xH/zhD3/g/v4epdSKuiITrwrHrb8JMc07hEiMIZEnWExk9QXS7beLjHjh9yVNQgiUUldCc5uGzw22Xs64FJoYZ+HJD0QESIEPgdPpyMdPnzgc9ggheHh44PHhkaqyKKUQCEIIKCGRUt0Q0Nvz/CzZQkybNsbIMAy4ccRai1YKmaQ2z+tCaIDT6cR///X/cDgceHp6IoSANsbw/v17fv3rX/Pu3Tu01l9E1EuiFPNfBInosNQ2Mu2m26Lzr2mFhuU4L9H+Ig1Z0AQg4oXQsBCa6SGJJ9IPAz/++COmrtjd79Bac7fb8fDwwLvHdxhtEMAwDGilMVpPVFxqmK/hj/ce5zwheJ6f95zPZx4fHthut1RVNQkUgMxCRoyEEDkcnokEPnz4QNM0nE4ntJQSgBDCancu24umqTDrxi4QQoJIWqaoXSlV/mOR/GuOvNU4ieXPCMkQrs1eBGKIkxYQAoQUSDHtq/ScuOjzZds5/boSGjFrmmlcAUjJ8XTk0/Mz++MeISX3j48ABODUttw/PGKlRABKK+TCpFxz4hXuvEBzjJG+7zkcDuz3B5wbiTHy977n/v6ex8cH6rpO65U3lshaX8rEtBgj3vtJRnQhcCkYl0JyS2hWuyvbv5lwgRRpcB8j4zDi3IjSGq0UWsksIHNPaYYJB31JE2XhCg1ZcBJdECIEHxjGAecd1lqsMWk33xiryMZNKmZ4MAl4ZCVPMwtiZBwdp9OZw+GA857NpqFpGrq+p207un7Ax0AEFAKdzVLMmKP0tRTieEGZmP9w1ZJ2DRwOB3744QeGYaSqKrTRPO+TmaxqizYGrcUFOwRSMG2wpTbSUkqklG+28bcEOoo1lyMLwCsl+/bM86dPWGu52+24226xRiPz10QxZoXANTtepGTCF5NQZ4ERgjBpgvS3/acTz0/P3N3teHh8QBmTGXI9kvwcExZq7gpL5Z/BB07tmXPb4pzP5uieylb888ePxACBCFEiECghsUriY8BfmNHbI3wG0wFkDfHp0yf+/o9/8O+/+hXfffcdxhjOXUcg4kISWill2swk7SxiREqFsSbhH22QQkIEHUJIg2a1+EUAMT+rEEjAE3H5/kBkGEee9s/884d/sn96wmrDh2FEILjfbbFa5fGu1W6c9/CNdim6GTd5TwCCEEQhGL2n6weePj2zf95zPp75+GnPL5xHVxatFVIKJDPGKjt8tYPfxBJBIOIz5WOIHM9nhnFEKUVlKqxUqBhRCEQU+BDpuoFKW7SVk/ET02aaul5x6IqcWcmmjxFC8AzjyP54pOt7tLXcPz5QbzY474lS4KKnH0cGN6LyWhQPNwLeB5zzOOeyaUr9yzRIfFVYlgI1CdbqItk+IQiknX4eRn487Pnh+ZlT3+MRtMPA8Xzm1J5xzmcixMU1a4fX28Ks5Y8hBnwIOJ+YcTy3fHre82m/xwewVc2p7dgfT5y6ljF6wgRgZ1C7/Hn94XVqAhEXA70f8zwdRhlqazFSJzMkFFJoYpAMvUu8WAyzFJiELxKPl/yXiyvdmxQ1WSEwupH9/hkfAtvdjs1uh6ktQkuU0QSgHwdG53A+LHhRBC/gfUgCE2Yc+mWu0rJlBBqBECNOyGlQQeRwPPC3H36gH0d2uy3vP3xg//GJCHRdj/f+Giu9eVe/QJKQkAWn7Qc+Pj3xab9HBMG//exn3G13uBBwIfC0P2DrCqt0xiaBQNpFXxgpWpEfgCE4TkPLueuQCKy1VLai0hpipDIWowcGB270BB9eMEMiA5pXtAxF4WfcQUQKiRDgQ2C/P6CU4t3jI7aq0NpgQ6Sua9quY3SO0TtCDDcpAIhxgRN5g/l+iTmrKQhBjElkokh28ng8cdjv2dQ1jw8PPNzfU1lLjND3A8Mw4n240MNLpPLawl0+UzSeJAqBC4G26+i6jhgC79+/4+5uh7WK3W4DMXI8HBI4DoGkb+a+Xg4jvHA/FpcgCdwwjJzPLc45lFRUVY01FqU0SiqMSWBcSYEbR7xzC2y29AFf+vkyHcEHfPD0/UB7aun7DmMtD48PyRwL0FKy2WxQSjEMA+M4EsIc9Lz0QC8/fJXQLNsSC8gc1eyGnq7v8M6xqRvumg3bqsZaixDgnKMfhmRbr/ggrjyEl0ZeTgRS/CdAxjIdoxtRUvJwd8e2qdBKsts2SAHn9swwjIzeJQ/mleDlst10BBaeBcA4jLRdC4DRSctopUlOh0BrhdbpsxtHws0o9Srq88LI66dDjPgQGEdHe245nU6AoK4rNk2TNFAEJSV1XSOlZBxH3JgwS9Gwkwe5NH3TH76B0KS+JEooFBIRIufjieA9TVXR1DWV1mhB8pikxPvAMIy40RPDZ/nx6sjFQRKkGEwEnEs7LUaorGXbGKxWKClo6gopBcMwpOioc3jv8dETYiB+ITHLwGX57uhGhr5HKz25+HNoI3kqSkqkEHjnknlaxH1ujHLjt2s6Eg6J9MPI4XjkeDzSNA2bZpOCtjnOIoSgqqpJaL1zxBBnhS3ElNpYXXksOQWo3rjTbk0nZEQQSR7M4bAneMe2aaiyhyKEoDIGJRUhBkbn8NFPoO11+PsKbVnNxaTkGMaRc9fRdh3GGN49PlAphRagZaFBELzHu6yWl+D+9dFuU1cCezEyjANd19H3A9Za6jqZpmVuSWuNsRZjTAKbwb/ojLweWC0aJl0TphqHrGkdd7s7mrpGkkEzySJUxlAZjVIC5x3OjXjv5vEu/JzCZ8HCe/paoSmkZ0RDCJ7T6UgMgW1TY7WeEH5lk5sbYmRwLsUIxJoB11R8RpSKwAjwEQbn6LqOcRyprOX+7i7ndkAjqKzGaIUg4rzDl5BDdrwLf760iZjiG23b0vUdMUYqa6c5i+xdIgRSKYwxGGNStNWlMP/nkNwlR4rA+BiT4JBMVD+ODKMDItvNhrqqkEJM2k0KMEphjUFrjfeOIXtRsaj+osInDToL0zcxT2UKkYgLnrY9I4iTplGZGVWVVTWCcUxungdcBE+adMmVxVh6fH3nL3fb6CP94OjHEbKQbpoNSJmTtoJKmwRClcyhcU8JR4pVr18y9YTCQgjsD/uUQ9Kaqq6zSV6mLEQKpGmds+8pA94P/dTP27i91PJx4p8PyfSHGNBaJ3hgbHb15RRQlUJiTArcee8Yh4FxHCYzGwnJXE9XBulvFZpZCyx2YpzvFDfVOUc7dHjvsUazbWqM1ighUUImt7Oq0FrhvKcbRvrBvygcIs5XGffSb4p5h/kYaPuetu9zyH5DXVdIkaKz3qXciVKSyhqsraZEXoy3tNznjeZEZ9bh3nsOhwPeezZNQ2UrlFpHNUpeRytFZS22MgzDwPPTM6NzFIgXJ4dg7c3d8u2Kv+V8oBtGzm2LEJLNdouxFqXkbJoKT4lYY2jqmhgC4zgwDsMkJCGsr1VS87McWZC7JnPNWEkCl+fzCSEE1ljqqkJLmXMYWSVag7GWEAL9MNL1w5R9fm2JXosNFy3Tdh39MBCJbLcbmqpCEhMADAFiQEgx7TDnQs7+ziD29uCfERyRzMLoRtq2hRipmwZrLVJds1jAJLxNXeOc4/l5Tz8MlAj9cn6Xs18KThGYSPIa+2Gg63ukUmx3O7TRGdSuN6GIYIyhrmsgebRj9uRiiNM1gfzF9UahuQUQs72LIQeGIl3bcjwcMVpTVzZrmdklVwKsMVSVJYpU29F2fSKMbJJK6Gcx2qWGEQsSIAuNC5zbjm4YiEKw3e2oqio9HzNrs3bUWlMZg3cuaaDsedwUjUlgLjyYlZkXeO/p+55xGBFCTonBUkVw2bSS1LVhu2lS3Oh4pG07nPMvzZabMZwcjQ+ihBp6ur5Hac3d7g6d8dzM4HkCaZ3q5Jz4wDgMeOenhOmyFYEJISSh+Wy+KQPNQuBqOjEQg8cHz7lrOZ3PNJuGqqqTKr4wMSbbWaN0YnTXJfWX5yKmFVkvzJR7vLAaRS33g2MYR8hqt8pFRoLi4gqkFBShMVWNDxHnk6ZZOttJfS/oeEELRVKeK0jJeRzYd2dQCSuY4gAseLhiqSyCU2MqC0JwOJ7o+oFUkFXqfxaCk7PWxIAgIglI0mcfQnL1s4nTxlDVNUKmioLVDEQSAiUlVWXz5kpByX4Y8N6nEpIMnJc5yRACcqrd+JJkpShTSdnQGALOjfR9Rz8O1M1mImRVvBhBK01dVRijicHTDz3OB6bKhuWKlF/j1a1Vcy6p5dE5pJRYW03BM1FcTSkRKo2gjaGqKkKIyUT5MGm7q0FfaDMQTYJzHgcObYvUOTajEpYTNwSniIKUAltZqrpGGs3xfKLve2D2iCYFEZMJjCFpdVGuvJtC8Ckl4EaElKncwWiQC529AoNpM1ltqKsKkWNXXZeCsnM+6zqRLS/LIm4mJxdtyYAptBEDQ99PNrluNhibCntEXFTpxQQA66qisgaIDEPP4NKiCcm1Nrm4CgMnawM476axtdY0Tb2ISaTFEQVYZa+hqmpA4Hxg9B4/CY2Y1WIsapkrlT0JTL7OQ9I0yhgqW2GUmTWNKNpcJI1daBcCbQx1U2OriuPpTN/3yRPzpUhtXa4ZwjI8kgUopiTt4FKEWxmN0irNt7BOrC9E9qCUYdM0KCkZhp72fGYcx4t1nhWLlHIO7r3WXowfRIghpdCHcSSGgFI6+f+57jVhikRpMRXJHU1elA+etj0xDsNijBTTKFcp1p4mnRlRvuC9n4qspJQ5ryPnoqJpAlnTKE2VvQrvU1zHhzC7vMtSPiEmJi+N1SUt3qeMcCrwMgnLvai4s1sb06az1tI0NTFG2mHg3CcwnzB8Sguk2maRa58KFSUemTDV6FLcqaoqjDEzrUu6L9ZVCpECkNYiRcqFLdMKq5KMIjRD3qGXqP1Wu+ZBKQUMdG1HCBFrUqRTKbUqFC/flQK0VgnXWAMxcD6fGIZ+AsKXk1sKyCUxgaRpUowhoHVyZZexkUvqpZQJBGYvrmtb3JhC6SvBZWmG8smK1b3yM6b8VQhUUzJScklBMevL21Kk+NVms0EbTdf3fHx65ng80nUtfd9zPp04n870XTdFj2fkPqdOknAFqqrGGLPSFpeqYXJOpKC2NU1Vo7VOWrvv6Lse59wUqV5aHH3O6uitgjMPL4gi5l3mOZ1OhBBpmiZldGUyTbeakoK6qalbS9e1tKcj3aYhcIe8IZrLiS5/iRF8iIzO43xSqUYrKmsmr23+QkISparQSMlm0zAejrRtm3hgLSh18fy69heWnl5OkGahAWjqmtrYqcrttrAv8jgCKmPYbbdsNxvatuWvf/1vqipFs5u64Xg8IInUVcXD/Y6mqhBaTVT6mEpLx1w5UNcNxtjrcRcOV9FyUkhqa2nqhrqqac9nzqczUki2223SOBdAWLdtkuYiVdc5kFtRylKgKQkZFxxPZ6KUbDcbtFRTUF5MrF6sthDZ9U5u6Tnb8nEcMVpPSjHk3SQgAdnFTi3M6seU2o8huZBWG7RUk0krYy9TBCGmyObddkvbthzPLeM44ENNxGT+igmvsKSdWfNFYk6JDDiXhLayFbWxVFLlc1/LbZbmLkmaqzSZE6m/+vdfcj6dadszXdfRns4MXQ9E2r7neDjg/cjD/QPb7QYl02kH7yPOuawtA9bafKLhpRZnXma6mqZONTe55qc8E0tYZXHwQBdTcjueMCs1cXEnIlLxVQj0o6PtOrZ3O3bbbQroMUEC4mLHlV2aEH7CP2cBbdfy/PzMdrtFKUVwnvP5hBsdAsHu7o6qsvmITerMx1RS6rwDweTqqkXiMZ22WoksgogSgt2m4ZNWeDcw9B3j2OCNRSCJIglXqUS8rf8EIXjO3RnvHEZpKm0wOaOeckG3v7fsTwqB1JqHuztqa2krw+lk8N4BYspQn049+/0RKTVKp8CcR+BCzJHtmOp1tEEIiQ9pntNeXazgJd6yxrDb7TBaTXkwrTVSDYuVTztYf/jwgfv7e+o62bTlibyrFhMYmu049KPj3HeM3mOM5W67w0g1CcxUeFa8B5Lk+hCQQmb7e+Z4PNG2Hf/2859htKHrOv73f/0Xh1x59pvf/Ib3Hz6w3W6ReRePIQmND2ECwFqlQqMYY1p4SFHhxZQEyYtrpMAUMNye6eqGjakQ0oAERyRMynFh7IqdB2IIHA9HvPc0VZ3jM/ImC2P+Z2m1V1hdQFNZGmt4//AwYTwBPO33/Pij4tPTMxyOKFtjqmbS9N57VE5CKpkEJviAMIpiyCJzJP9ynZVSNErR1OtzUMM4pDrq7IEKAbpE+ZZMWZviuJj8LKtlF7sQU5wlxOSVGLtyWS+bFKnyXguBbBqUTu7h6Xym73qe9/v83ciH777j7v6eYRh42j+jjMZUFm1EXpiUIC2ZaqVUio1M9iNOwLoEDQUpFxVi8vRqa6mtSba8qtlVDabWQAqKuRim0tQSLBQCdNZGLniGvif6gDY2jRNiChCugO9Ca19gnbKdpqBi/mc6qSkSVrq/f+B0bhlGx/PhiG22SK0nECyFTDEwLTFaIMjZ9RXEuFyUpfGe17gAn6VCKquvIRVkh5zJfN0Bn2cbyacPcsU6QqKVwihFxGeblHecWJNUgJWREqEUQiYVfDZtcn/zrnl8eCTGwOl44u9//zvH84ldf08tJVoaAjG7mT6pTaWy15LnvPDEVozLng4y0NiK++2O47ml7zqOpxMyCtAKR+TsxoyZApWtsDadgJQ6RW1H5+j6nhhTJFoKsU6w3vBclm0SmOnn4suLZq1hu92w3d1xOJ44ns5UxxO2qnHeM7qA0pqmbjBKoOUCD3xFW+Dmq6bLWV/nHOu6teVRsLUDnPBMkgvnPMPoUVphpEJDPrdTtlkSnKUNLQCzLKjRBrFJ1WTez5qjaZrkFmrN3/7xD7q+59ye0cYglSKEdAjOBz/Ff1TGU2HBs+VVTIsUAu8dTV3x4f17QvyIG0Y+ffzI2I8IrRli4NCe6ccBYmTTNDzc33G/2+GlxAefi67aBIDrejrwtlTXMwSPV8JQtMtKYG44yFKmfNb79+8YRsfH5z1Pz3s2mzDxoq6bVPsr1ZRUfIs//KVNl4CNyl5LaTN0XGa0maYWKe6uw3mPNRVKm8QrIaZI8KXXnbU3xXUVQiCVxEgzv92h2NSYDmw1Vc3ju3eMbuR4PlFtNkijcz3siA8erXNhU8Y0iWGCa92ZtJySAolEVgqlDEppxtERXQISY9a+tqrQ1hKjxzvH835P3/c83t8hlUpCPnpUlUo/pJoj7EXjXbW4/rB+bu3zLahOvKg3bDZbjm2f62ZOyBwmqGxF3dQT7vxKJXNN4qqJZJ5KTejSTZ3Jnhkw4Zusf0u0cixvIdCaSERmPPAClp77FguxFHOEJlUAJu0npcBYw+P7Rz4+PXHqOnbjgLIG71OSLvqAQmJU8lrKIghYuP4L0CkEoKY4hVRmwgbeeYbeIZyD6Km0TgXrIdC2J7qu43g4IGJI3ovz+NGhcgmlLAnCJcJ9kf2vNbFmYdaOxppc91tzPLech37KqldGUeeTq5OXejXOa4Zn3ZYaevocQYc4+9+XD5QhpGCyJ1GWCrukEcYxFWhvm3uUVjloJKcvL0sO1gftr6BXXuSszQQIleItSMHDu0cO7Znn05HWD0hvUjp/HFERLAkjlRMRS5O+SpoWkymATKcErDYYZQg2YrTHeo8npiCaTP5XW1k+ffrE/vmJjz9+TO9qMZowOiSpTifKVKYwWefJIi2cA7EOAXDj0/ru/DclBZum4n634XQ40B2PhBDY/PznWAVGpfmEssJFgko38Vq3rUdbBC9ZOz2lG13MxVJglngDQMEUdylxhwD4XLjjvadpNlhTEZeSsRDoJd2XrShiGdMFKTaClFMW2ahUOCWtphtH/PlEzF5QIy21tmixzpXI5QBXYOI2zwQCoxVSScpLikqmWDZNqsEZR3785w+Mw4DOJrG2VQ4qzniqbIKrarusAi4F4nO6B3JEVim2Tc3DrkHElJfaVoZKS+Z4djqDJqd5pV+KC39LbJfsSghCEGN5yZWYBEmXwuFSG7oUmAKiRL4ho5ilLkScG3MkNIFEa6o5sMBa8C7bpZKcAOHiphTzJJVIJQ+VrRL4HHqiT16aNYbGVsndzgO/WuXxyh+FAKESJptNQxIEITXbumbcbHmSP3I+nxEIttstTV2/kG+KN5lwTUHhyC3zURgacwBPUFeWh/s7dK51vts2VEbPplgwpXEux7p0sl9qS6doSZG+fKi43WHhAEz5sZjd2JgkfhhGvPMoIdk2G6wxi4mvqX3Nkr5EfhGiYmpqa9k0Dc+HPae2JTjPQ9VQVZamqV6sknsDf1aPFMUkFp8LHZUx7DYb7rY7zscTXd/xy1/8gm2zSfhoUaQmrzq/tb/jjU/XBM+7P3l/xlgeHh7ZbFJ+yFqzyjelOqIbWu4btLXQhEgQ4UpoRFZRYZ5VAqpjSRJqtEweyQsbK0/kQru88Pvy2XJfArWx7JqU1OtoiSEdE6mrCmPNlNl+ay3Z5XjAVKNzs4vIBHjfv3sPMdJ3He8eHmiqfLaIGUNd9Pxyv9PfxeLTDV0kUgCzEKmkxFqb6nbzAbw34O+f3C6yWrNXVCKtMUYMCi3TlQKxqYLMj+kMsjVpwcrxiAnrfQ3lF9pp2YXVmm3d0DUbonOMyrFr0qmD6bVv/wJurRdCYLXmfneHEoJxHLnb7tL5Li5AN69vjK+hQU2Vb0loPvf8t9czl0JT0t95B3V9ertDpS0bW6PqGinSixxD8LnoSaC1mcoDpYAYVtDmJ7VlH0YpdlUN9480xuKd526zoa7qnAW/NotfPN4LdrTclkIglGZTS5qqSn+bandiik+JnyosLyOO1/q6jYReAwZf1/T6QxrG5SDW8XhkHB0bW+G3d4gYadSGEEM+8jAgZcp3TKox4x3EnOD63ATXrwe7eEjMWkshQCrumoaNsYQYUxRaqW8ioZcm8QYp01NSyOw2zPdFUbE3TdxFMOMFxrw0jfnbX6PCv5X6Tf3o5UcpBKNztOczx+ORvkvVdE6MnNszopQKSBiGVP+itZreQPCvaCKD7zncLtDKgDIZGBb6pwd+2njc3pcrzSFKcdacaJmU3Eue25pYpiqoL2hx9dv6u/9KDDP1nwe5qtTpuo7Dfk/Xtth8rFVGGPuBj+eWdhzQ1uBjOpVXVbuUIxIXDHzjLK4eu7FqS0106eVM7BNi8rJ+aisa8/rmkrycJmFdZlA8vm/f4uLf2250uf/tDdJyTDELTSQlGtuu43Q6YbRht93xcH+P0Zru1HI6HDidjoRTnMBu8V4Q5U1MC4l5Rdd+tYK9FKgy3Lfeaq+AiiXIF0vfnBnb/P/aUlkIRVvG/M6WkeADzaZhu9mw2WwwSqOFghBo+47T8cTgximrW0oLS+ETgpfPUL3Azzet+aXA8DIG+Ze2heBcndf6kk6+fvjP3l/y5tuJcFrcEmUmhpBrWRzWptK/pmmmV8Rba9nd3bPd7HDjyNOnT7h8qErmms6Qz/8uIeOyxXg5/E9XEv/jAnMx8PXeeMsSfQXV2RaX6DwLnf4SD5du/1uvt1CtlSyvZU2C8e7dO+7u7zDGooymaF9BOnpyd7/jl+GX3D880Gw3bPO72wpIhfyadBbVIUsQuOLCbd7cwgQ3u1hN6BuJzxdsy+kN75/t6sJzKl7hl5B1dQIUPhcM+1INU4rIy+Yux5jjoqhcCjG/sRwExmhqrdNLkYu2ECnnJCJII9jlNxHcD+nds6lQqhyKm0mdCRbTgDOEvPGK+6+dbPw6gXn1rVNvIKAcZitOMFyD9Je6Wrzn/KrXF8crQlMEVYhVwf7cd0mDJO3/JbwsJziTFhMQ5yrEKUUiRKoRjmGWIplfDbIcTKYKGSRgjMZWFh/ipKGKdM4H51m5UWuhKacYX2fSl7Qvfmk2nxGaN7Tl/1Qy9Xn5DC8ITV7Ql2m+/tbla+6mOV/QEBf9L59/S4uxnBWft0KMMdXxaD2/UaxtW77//nv+13/+J9vdFqHkqgYGcrlCFoqYHfZ1sGme58o25tBo0SoJNM7a5lu2wsQ3HTP+jIC9+U2fi+decoG/lobPjvdqpn7+29e+Fq8cnGzblr/97W/85S9/4fn5GaUU+nQ68ac//Qmd34E/nZsuBLAAXwGiiHOVX/7PIBJ1a+A1/fM/IDTLA+rweUZ9K6G5fHaO1ny+/b8qNJf/P9Q4jjw/P/PnP/+Zp6cnvvvuO/4vfyIUZq0a4T8AAAAASUVORK5CYII=;" parent="1" vertex="1">
                    <mxGeometry x="1201" y="-959" width="141" height="50" as="geometry"/>
                </mxCell>
                <mxCell id="192" value="&lt;b&gt;&lt;font color=&quot;#3e698f&quot; style=&quot;font-size: 17px;&quot;&gt;History data&lt;/font&gt;&lt;/b&gt;" style="text;html=1;strokeColor=none;fillColor=none;align=center;verticalAlign=middle;whiteSpace=wrap;rounded=0;dashed=1;strokeWidth=2;fontSize=16;" parent="1" vertex="1">
                    <mxGeometry x="11" y="-1000" width="118" height="30" as="geometry"/>
                </mxCell>
                <mxCell id="193" value="&lt;font color=&quot;#3e698f&quot;&gt;&lt;span style=&quot;font-size: 17px;&quot;&gt;&lt;b&gt;Trend&lt;br&gt;&lt;/b&gt;&lt;/span&gt;&lt;/font&gt;" style="text;html=1;strokeColor=none;fillColor=none;align=center;verticalAlign=middle;whiteSpace=wrap;rounded=0;dashed=1;strokeWidth=2;fontSize=16;" parent="1" vertex="1">
                    <mxGeometry x="209" y="-855" width="118" height="30" as="geometry"/>
                </mxCell>
                <mxCell id="194" value="&lt;b&gt;&lt;font color=&quot;#3e698f&quot; style=&quot;font-size: 17px;&quot;&gt;Remainder&lt;/font&gt;&lt;/b&gt;" style="text;html=1;strokeColor=none;fillColor=none;align=center;verticalAlign=middle;whiteSpace=wrap;rounded=0;dashed=1;strokeWidth=2;fontSize=16;" parent="1" vertex="1">
                    <mxGeometry x="213.5" y="-1150" width="118" height="30" as="geometry"/>
                </mxCell>
                <mxCell id="195" value="&lt;b&gt;&lt;font color=&quot;#3e698f&quot; style=&quot;font-size: 17px;&quot;&gt;Predict data&lt;/font&gt;&lt;/b&gt;" style="text;html=1;strokeColor=none;fillColor=none;align=center;verticalAlign=middle;whiteSpace=wrap;rounded=0;dashed=1;strokeWidth=2;fontSize=16;" parent="1" vertex="1">
                    <mxGeometry x="1212.5" y="-983" width="118" height="30" as="geometry"/>
                </mxCell>
                <mxCell id="196" value="&lt;b&gt;&lt;font color=&quot;#3e698f&quot; style=&quot;font-size: 17px;&quot;&gt;N x&lt;/font&gt;&lt;/b&gt;" style="text;html=1;strokeColor=none;fillColor=none;align=center;verticalAlign=middle;whiteSpace=wrap;rounded=0;dashed=1;strokeWidth=2;fontSize=16;" parent="1" vertex="1">
                    <mxGeometry x="686" y="-1175" width="118" height="30" as="geometry"/>
                </mxCell>
                <mxCell id="197" value="&lt;b&gt;&lt;font color=&quot;#3e698f&quot; style=&quot;font-size: 17px;&quot;&gt;N x&lt;/font&gt;&lt;/b&gt;" style="text;html=1;strokeColor=none;fillColor=none;align=center;verticalAlign=middle;whiteSpace=wrap;rounded=0;dashed=1;strokeWidth=2;fontSize=16;" parent="1" vertex="1">
                    <mxGeometry x="701" y="-730" width="118" height="30" as="geometry"/>
                </mxCell>
                <mxCell id="201" value="&lt;font style=&quot;font-size: 25px;&quot;&gt;Electricity&lt;/font&gt;" style="rounded=1;whiteSpace=wrap;html=1;labelBackgroundColor=none;fontSize=18;fillColor=#dae8fc;strokeColor=#6c8ebf;" parent="1" vertex="1">
                    <mxGeometry x="-850" y="-67" width="120" height="60" as="geometry"/>
                </mxCell>
                <mxCell id="202" value="&lt;span style=&quot;font-size: 23px;&quot;&gt;&lt;font style=&quot;font-size: 23px;&quot;&gt;Exchange&lt;br&gt;Rate&lt;/font&gt;&lt;/span&gt;" style="rounded=1;whiteSpace=wrap;html=1;labelBackgroundColor=none;fontSize=18;fillColor=#dae8fc;strokeColor=#6c8ebf;align=center;" parent="1" vertex="1">
                    <mxGeometry x="-710" y="-67" width="120" height="60" as="geometry"/>
                </mxCell>
                <mxCell id="203" value="&lt;font style=&quot;font-size: 25px;&quot;&gt;Weather&lt;/font&gt;" style="rounded=1;whiteSpace=wrap;html=1;labelBackgroundColor=none;fontSize=18;fillColor=#dae8fc;strokeColor=#6c8ebf;" parent="1" vertex="1">
                    <mxGeometry x="-570" y="-67" width="120" height="60" as="geometry"/>
                </mxCell>
                <mxCell id="204" value="&lt;font style=&quot;font-size: 23px;&quot;&gt;Beijing&lt;br&gt;Air Quality&lt;br&gt;&lt;/font&gt;" style="rounded=1;whiteSpace=wrap;html=1;labelBackgroundColor=none;fontSize=18;fillColor=#dae8fc;strokeColor=#6c8ebf;" parent="1" vertex="1">
                    <mxGeometry x="-850" y="27" width="120" height="60" as="geometry"/>
                </mxCell>
                <mxCell id="205" value="&lt;font style=&quot;font-size: 23px;&quot;&gt;ETTh1&lt;br&gt;ETTh2&lt;br&gt;&lt;/font&gt;" style="rounded=1;whiteSpace=wrap;html=1;labelBackgroundColor=none;fontSize=18;fillColor=#dae8fc;strokeColor=#6c8ebf;" parent="1" vertex="1">
                    <mxGeometry x="-710" y="27" width="120" height="60" as="geometry"/>
                </mxCell>
                <mxCell id="206" value="&lt;font style=&quot;font-size: 23px;&quot;&gt;ETTm1&lt;br&gt;ETTm2&lt;br&gt;&lt;/font&gt;" style="rounded=1;whiteSpace=wrap;html=1;labelBackgroundColor=none;fontSize=18;fillColor=#dae8fc;strokeColor=#6c8ebf;" parent="1" vertex="1">
                    <mxGeometry x="-570" y="27" width="120" height="60" as="geometry"/>
                </mxCell>
                <mxCell id="210" value="&lt;font color=&quot;#1b2d3d&quot; style=&quot;font-size: 30px;&quot;&gt;&lt;b style=&quot;&quot;&gt;DATASETS&lt;/b&gt;&lt;/font&gt;" style="rounded=0;whiteSpace=wrap;html=1;labelBackgroundColor=none;fontSize=20;fillColor=#fff2cc;strokeColor=#d6b656;" parent="1" vertex="1">
                    <mxGeometry x="-870" y="-157" width="439" height="60" as="geometry"/>
                </mxCell>
                <mxCell id="288" style="edgeStyle=none;html=1;exitX=1;exitY=0.5;exitDx=0;exitDy=0;entryX=0;entryY=0.5;entryDx=0;entryDy=0;strokeWidth=4;fontSize=32;fontColor=#1B2D3D;" parent="1" source="219" target="287" edge="1">
                    <mxGeometry relative="1" as="geometry"/>
                </mxCell>
                <mxCell id="291" style="edgeStyle=none;html=1;exitX=0.5;exitY=1;exitDx=0;exitDy=0;entryX=0;entryY=0.5;entryDx=0;entryDy=0;strokeWidth=4;fontSize=32;fontColor=#1B2D3D;" parent="1" source="219" target="290" edge="1">
                    <mxGeometry relative="1" as="geometry"/>
                </mxCell>
                <mxCell id="219" value="" style="rounded=0;whiteSpace=wrap;html=1;labelBackgroundColor=none;fontSize=20;fontColor=#333333;fillColor=#f5f5f5;strokeColor=#666666;" parent="1" vertex="1">
                    <mxGeometry x="-808" y="300" width="316" height="399" as="geometry"/>
                </mxCell>
                <mxCell id="220" value="&lt;font style=&quot;font-size: 25px;&quot;&gt;Split dataset&lt;/font&gt;" style="rounded=1;whiteSpace=wrap;html=1;labelBackgroundColor=none;fontSize=18;fillColor=#ffe6cc;strokeColor=#d79b00;" parent="1" vertex="1">
                    <mxGeometry x="-786" y="388" width="272" height="60" as="geometry"/>
                </mxCell>
                <mxCell id="226" value="&lt;font color=&quot;#1b2d3d&quot; style=&quot;font-size: 30px;&quot;&gt;&lt;b style=&quot;&quot;&gt;DATA PREPROCESS&lt;/b&gt;&lt;/font&gt;" style="rounded=0;whiteSpace=wrap;html=1;labelBackgroundColor=none;fontSize=20;fillColor=#fff2cc;strokeColor=#d6b656;" parent="1" vertex="1">
                    <mxGeometry x="-807" y="301" width="314" height="60" as="geometry"/>
                </mxCell>
                <mxCell id="227" value="&lt;span style=&quot;font-size: 25px;&quot;&gt;Normalize&lt;/span&gt;" style="rounded=1;whiteSpace=wrap;html=1;labelBackgroundColor=none;fontSize=18;fillColor=#ffe6cc;strokeColor=#d79b00;" parent="1" vertex="1">
                    <mxGeometry x="-786" y="466" width="272" height="60" as="geometry"/>
                </mxCell>
                <mxCell id="228" value="&lt;font style=&quot;font-size: 25px;&quot;&gt;Add covariate&lt;br&gt;&lt;/font&gt;" style="rounded=1;whiteSpace=wrap;html=1;labelBackgroundColor=none;fontSize=18;fillColor=#ffe6cc;strokeColor=#d79b00;" parent="1" vertex="1">
                    <mxGeometry x="-786" y="545" width="272" height="60" as="geometry"/>
                </mxCell>
                <mxCell id="229" value="&lt;font style=&quot;font-size: 25px;&quot;&gt;Generate Dataloder&lt;/font&gt;" style="rounded=1;whiteSpace=wrap;html=1;labelBackgroundColor=none;fontSize=18;fillColor=#ffe6cc;strokeColor=#d79b00;" parent="1" vertex="1">
                    <mxGeometry x="-786" y="623" width="272" height="60" as="geometry"/>
                </mxCell>
                <mxCell id="230" value="&lt;font style=&quot;font-size: 25px;&quot;&gt;DLinear&lt;/font&gt;" style="rounded=1;whiteSpace=wrap;html=1;labelBackgroundColor=none;fontSize=18;fillColor=#d5e8d4;strokeColor=#82b366;" parent="1" vertex="1">
                    <mxGeometry x="-178" y="-58" width="120" height="60" as="geometry"/>
                </mxCell>
                <mxCell id="231" value="&lt;font style=&quot;font-size: 25px;&quot;&gt;NLinear&lt;/font&gt;" style="rounded=1;whiteSpace=wrap;html=1;labelBackgroundColor=none;fontSize=18;fillColor=#d5e8d4;strokeColor=#82b366;" parent="1" vertex="1">
                    <mxGeometry x="-178" y="22" width="120" height="60" as="geometry"/>
                </mxCell>
                <mxCell id="232" value="&lt;font style=&quot;font-size: 25px;&quot;&gt;NHITS&lt;/font&gt;" style="rounded=1;whiteSpace=wrap;html=1;labelBackgroundColor=none;fontSize=18;fillColor=#d5e8d4;strokeColor=#82b366;" parent="1" vertex="1">
                    <mxGeometry x="-178" y="102" width="120" height="60" as="geometry"/>
                </mxCell>
                <mxCell id="233" value="&lt;font style=&quot;font-size: 25px;&quot;&gt;Linear&lt;/font&gt;" style="rounded=1;whiteSpace=wrap;html=1;labelBackgroundColor=none;fontSize=18;fillColor=#d5e8d4;strokeColor=#82b366;" parent="1" vertex="1">
                    <mxGeometry x="-178" y="-138" width="120" height="60" as="geometry"/>
                </mxCell>
                <mxCell id="234" value="&lt;font style=&quot;font-size: 25px;&quot;&gt;Informer&lt;/font&gt;" style="rounded=1;whiteSpace=wrap;html=1;labelBackgroundColor=none;fontSize=18;fillColor=#d5e8d4;strokeColor=#82b366;" parent="1" vertex="1">
                    <mxGeometry x="-38" y="-58" width="120" height="60" as="geometry"/>
                </mxCell>
                <mxCell id="235" value="&lt;font style=&quot;font-size: 22px;&quot;&gt;Pyraformer&lt;/font&gt;" style="rounded=1;whiteSpace=wrap;html=1;labelBackgroundColor=none;fontSize=18;fillColor=#d5e8d4;strokeColor=#82b366;" parent="1" vertex="1">
                    <mxGeometry x="-38" y="22" width="120" height="60" as="geometry"/>
                </mxCell>
                <mxCell id="236" value="&lt;font style=&quot;font-size: 21px;&quot;&gt;Crossformer&lt;/font&gt;" style="rounded=1;whiteSpace=wrap;html=1;labelBackgroundColor=none;fontSize=18;fillColor=#d5e8d4;strokeColor=#82b366;" parent="1" vertex="1">
                    <mxGeometry x="-38" y="102" width="120" height="60" as="geometry"/>
                </mxCell>
                <mxCell id="237" value="&lt;font style=&quot;font-size: 25px;&quot;&gt;NBEATS&lt;/font&gt;" style="rounded=1;whiteSpace=wrap;html=1;labelBackgroundColor=none;fontSize=18;fillColor=#d5e8d4;strokeColor=#82b366;" parent="1" vertex="1">
                    <mxGeometry x="-38" y="-138" width="120" height="60" as="geometry"/>
                </mxCell>
                <mxCell id="238" value="&lt;font style=&quot;font-size: 22px;&quot;&gt;FEDformer&lt;/font&gt;" style="rounded=1;whiteSpace=wrap;html=1;labelBackgroundColor=none;fontSize=18;fillColor=#d5e8d4;strokeColor=#82b366;" parent="1" vertex="1">
                    <mxGeometry x="102" y="-58" width="120" height="60" as="geometry"/>
                </mxCell>
                <mxCell id="239" value="&lt;font style=&quot;font-size: 21px;&quot;&gt;Autoformer&lt;/font&gt;" style="rounded=1;whiteSpace=wrap;html=1;labelBackgroundColor=none;fontSize=18;fillColor=#d5e8d4;strokeColor=#82b366;" parent="1" vertex="1">
                    <mxGeometry x="102" y="22" width="120" height="60" as="geometry"/>
                </mxCell>
                <mxCell id="240" value="&lt;font style=&quot;font-size: 25px;&quot;&gt;PatchTST&lt;/font&gt;" style="rounded=1;whiteSpace=wrap;html=1;labelBackgroundColor=none;fontSize=18;fillColor=#d5e8d4;strokeColor=#82b366;" parent="1" vertex="1">
                    <mxGeometry x="102" y="102" width="120" height="60" as="geometry"/>
                </mxCell>
                <mxCell id="241" value="&lt;font style=&quot;font-size: 25px;&quot;&gt;LSTNet&lt;/font&gt;" style="rounded=1;whiteSpace=wrap;html=1;labelBackgroundColor=none;fontSize=18;fillColor=#d5e8d4;strokeColor=#82b366;" parent="1" vertex="1">
                    <mxGeometry x="102" y="-137" width="120" height="60" as="geometry"/>
                </mxCell>
                <mxCell id="303" style="edgeStyle=none;html=1;exitX=0.5;exitY=1;exitDx=0;exitDy=0;entryX=0.5;entryY=0;entryDx=0;entryDy=0;strokeWidth=4;fontSize=32;fontColor=#1B2D3D;" parent="1" source="246" target="273" edge="1">
                    <mxGeometry relative="1" as="geometry"/>
                </mxCell>
                <mxCell id="246" value="" style="rounded=0;whiteSpace=wrap;html=1;labelBackgroundColor=none;fontSize=20;fillColor=#f5f5f5;strokeColor=#666666;gradientColor=#b3b3b3;" parent="1" vertex="1">
                    <mxGeometry x="635" y="-245" width="230" height="480" as="geometry"/>
                </mxCell>
                <mxCell id="247" value="&lt;font style=&quot;font-size: 25px;&quot;&gt;MAE&lt;/font&gt;" style="rounded=1;whiteSpace=wrap;html=1;labelBackgroundColor=none;fontSize=18;fillColor=#e1d5e7;strokeColor=#9673a6;" parent="1" vertex="1">
                    <mxGeometry x="677" y="-162" width="148" height="60" as="geometry"/>
                </mxCell>
                <mxCell id="248" value="&lt;font color=&quot;#1b2d3d&quot; style=&quot;font-size: 30px;&quot;&gt;&lt;b style=&quot;&quot;&gt;METRICS&lt;/b&gt;&lt;/font&gt;" style="rounded=0;whiteSpace=wrap;html=1;labelBackgroundColor=none;fontSize=20;fillColor=#fff2cc;strokeColor=#d6b656;" parent="1" vertex="1">
                    <mxGeometry x="635" y="-244" width="230" height="60" as="geometry"/>
                </mxCell>
                <mxCell id="249" value="&lt;span style=&quot;font-size: 25px;&quot;&gt;MSE&lt;/span&gt;" style="rounded=1;whiteSpace=wrap;html=1;labelBackgroundColor=none;fontSize=18;fillColor=#e1d5e7;strokeColor=#9673a6;" parent="1" vertex="1">
                    <mxGeometry x="677" y="-80" width="148" height="60" as="geometry"/>
                </mxCell>
                <mxCell id="250" value="&lt;font style=&quot;font-size: 25px;&quot;&gt;WAPE&lt;br&gt;&lt;/font&gt;" style="rounded=1;whiteSpace=wrap;html=1;labelBackgroundColor=none;fontSize=18;fillColor=#e1d5e7;strokeColor=#9673a6;" parent="1" vertex="1">
                    <mxGeometry x="677" width="148" height="60" as="geometry"/>
                </mxCell>
                <mxCell id="251" value="&lt;font style=&quot;font-size: 25px;&quot;&gt;MAPE&lt;/font&gt;" style="rounded=1;whiteSpace=wrap;html=1;labelBackgroundColor=none;fontSize=18;fillColor=#e1d5e7;strokeColor=#9673a6;" parent="1" vertex="1">
                    <mxGeometry x="677" y="81" width="148" height="60" as="geometry"/>
                </mxCell>
                <mxCell id="252" value="&lt;font style=&quot;font-size: 25px;&quot;&gt;DTW&lt;/font&gt;" style="rounded=1;whiteSpace=wrap;html=1;labelBackgroundColor=none;fontSize=18;fillColor=#e1d5e7;strokeColor=#9673a6;" parent="1" vertex="1">
                    <mxGeometry x="677" y="163" width="148" height="60" as="geometry"/>
                </mxCell>
                <mxCell id="316" style="edgeStyle=none;html=1;entryX=0;entryY=0.5;entryDx=0;entryDy=0;strokeWidth=4;fontSize=36;fontColor=#1B2D3D;" parent="1" source="253" target="292" edge="1">
                    <mxGeometry relative="1" as="geometry"/>
                </mxCell>
                <mxCell id="253" value="" style="rounded=0;whiteSpace=wrap;html=1;labelBackgroundColor=none;fontSize=20;fontColor=#333333;fillColor=#f5f5f5;strokeColor=#666666;" parent="1" vertex="1">
                    <mxGeometry x="-136" y="300" width="316" height="400" as="geometry"/>
                </mxCell>
                <mxCell id="254" value="&lt;font style=&quot;font-size: 25px;&quot;&gt;Train / Validate / Test&lt;/font&gt;" style="rounded=1;whiteSpace=wrap;html=1;labelBackgroundColor=none;fontSize=18;fillColor=#f8cecc;strokeColor=#b85450;" parent="1" vertex="1">
                    <mxGeometry x="-114" y="393" width="272" height="60" as="geometry"/>
                </mxCell>
                <mxCell id="255" value="&lt;font color=&quot;#1b2d3d&quot;&gt;&lt;span style=&quot;font-size: 30px;&quot;&gt;&lt;b&gt;TRAINER&lt;/b&gt;&lt;/span&gt;&lt;/font&gt;" style="rounded=0;whiteSpace=wrap;html=1;labelBackgroundColor=none;fontSize=20;fillColor=#fff2cc;strokeColor=#d6b656;" parent="1" vertex="1">
                    <mxGeometry x="-135" y="301" width="314" height="60" as="geometry"/>
                </mxCell>
                <mxCell id="256" value="&lt;span style=&quot;font-size: 25px;&quot;&gt;Optimizer stratege&lt;/span&gt;" style="rounded=1;whiteSpace=wrap;html=1;labelBackgroundColor=none;fontSize=18;fillColor=#f8cecc;strokeColor=#b85450;" parent="1" vertex="1">
                    <mxGeometry x="-114" y="469" width="272" height="60" as="geometry"/>
                </mxCell>
                <mxCell id="257" value="&lt;font style=&quot;font-size: 25px;&quot;&gt;Save model weight&lt;br&gt;&lt;/font&gt;" style="rounded=1;whiteSpace=wrap;html=1;labelBackgroundColor=none;fontSize=18;fillColor=#f8cecc;strokeColor=#b85450;" parent="1" vertex="1">
                    <mxGeometry x="-114" y="546" width="272" height="60" as="geometry"/>
                </mxCell>
                <mxCell id="258" value="&lt;font style=&quot;font-size: 25px;&quot;&gt;Record running logs&lt;/font&gt;" style="rounded=1;whiteSpace=wrap;html=1;labelBackgroundColor=none;fontSize=18;fillColor=#f8cecc;strokeColor=#b85450;" parent="1" vertex="1">
                    <mxGeometry x="-114" y="623" width="272" height="60" as="geometry"/>
                </mxCell>
                <mxCell id="313" style="edgeStyle=none;html=1;exitX=1;exitY=0.5;exitDx=0;exitDy=0;entryX=0;entryY=0.5;entryDx=0;entryDy=0;strokeWidth=4;fontSize=32;fontColor=#1B2D3D;" parent="1" source="271" target="312" edge="1">
                    <mxGeometry relative="1" as="geometry"/>
                </mxCell>
                <mxCell id="271" value="" style="rounded=0;whiteSpace=wrap;html=1;labelBackgroundColor=none;fontSize=20;fontColor=#333333;fillColor=#f5f5f5;strokeColor=#666666;" parent="1" vertex="1">
                    <mxGeometry x="592" y="301" width="316" height="400" as="geometry"/>
                </mxCell>
                <mxCell id="272" value="&lt;span style=&quot;font-size: 25px;&quot;&gt;Performence analysis&lt;/span&gt;" style="rounded=1;whiteSpace=wrap;html=1;labelBackgroundColor=none;fontSize=18;fillColor=#b1ddf0;strokeColor=#10739e;" parent="1" vertex="1">
                    <mxGeometry x="614" y="394" width="272" height="57" as="geometry"/>
                </mxCell>
                <mxCell id="273" value="&lt;font color=&quot;#1b2d3d&quot;&gt;&lt;span style=&quot;font-size: 30px;&quot;&gt;&lt;b&gt;EVALUATOR&lt;/b&gt;&lt;/span&gt;&lt;/font&gt;" style="rounded=0;whiteSpace=wrap;html=1;labelBackgroundColor=none;fontSize=20;fillColor=#fff2cc;strokeColor=#d6b656;" parent="1" vertex="1">
                    <mxGeometry x="593" y="302" width="314" height="60" as="geometry"/>
                </mxCell>
                <mxCell id="274" value="&lt;span style=&quot;font-size: 25px;&quot;&gt;Generalization analysis&lt;/span&gt;" style="rounded=1;whiteSpace=wrap;html=1;labelBackgroundColor=none;fontSize=18;fillColor=#b1ddf0;strokeColor=#10739e;" parent="1" vertex="1">
                    <mxGeometry x="614" y="470" width="272" height="60" as="geometry"/>
                </mxCell>
                <mxCell id="275" value="&lt;font style=&quot;font-size: 25px;&quot;&gt;Ranking analysis&lt;br&gt;&lt;/font&gt;" style="rounded=1;whiteSpace=wrap;html=1;labelBackgroundColor=none;fontSize=18;fillColor=#b1ddf0;strokeColor=#10739e;" parent="1" vertex="1">
                    <mxGeometry x="614" y="547" width="272" height="60" as="geometry"/>
                </mxCell>
                <mxCell id="276" value="&lt;font style=&quot;font-size: 25px;&quot;&gt;Result visualization&lt;/font&gt;" style="rounded=1;whiteSpace=wrap;html=1;labelBackgroundColor=none;fontSize=18;fillColor=#b1ddf0;strokeColor=#10739e;" parent="1" vertex="1">
                    <mxGeometry x="614" y="624" width="272" height="60" as="geometry"/>
                </mxCell>
                <mxCell id="281" value="" style="shape=image;verticalLabelPosition=bottom;labelBackgroundColor=default;verticalAlign=top;aspect=fixed;imageAspect=0;image=data:image/png,iVBORw0KGgoAAAANSUhEUgAAAGQAAABVCAYAAAC/xEFcAAAM8ElEQVR4Ae2dB8gUORTHBQ/E3sWuWE/svfdez3pWTlCxYsWOir1gr4jlVO447GLhsGKXs2JH7P3O3nvJ8RvMkMk3s7uzZfz8dgNLpmRekvdP8vJeXrKJRCzEKw4kileliRVGxACJZ40gBkgMkHjGgXhWnFgPiQESzzgQz4oT6yEaIK9evRIPHjwQL1680N54cxsDROEzYPz6668iUaJEonbt2uLq1avKW28uY4AofJ45c6YBBoDw27dvn/LWm8sYIN/4TO9o1KiRCUiGDBnEkydPvEFBySUGyDdmIDeyZMliAlK+fHlDlii88uQyBsg3Nq9YscIEg+GqR48e4vPnz56AoGYSA+QbN7p27WoBZNGiRSqfPLuOASKEeP/+vahYsaIFkHPnznkGgppRDBAhxI0bN0T69OlNQHLnzi2ePn2q8snx+suXLwagHz58cEzDi9evX4uXL1/6HQajDhBmU2vXrhUbNmwQf/31l1i/fr1YtmyZCQbyo2PHjmLdunXme9LQi/Tw/PlzMX36dNGkSRPRoUMHMW3aNMtEABn0+PFjsXjxYtGtWzdRtmxZ0b9/f/H333+Ljx8/6uSM+6gChNbcr18/C/OlzuEv3rFjh4WBzMpgsv4ds7ODBw+KN2/eiI0bN4qqVavGSVOwYEGxa9cuCz15ExIgt2/fFhcuXDBaxeXLl43WQItQf//9959xf/fuXfHw4UPjmiHi1q1b4t9//zViurNTuHPnjrh48aIgr/v374uzZ8+a+dFCofHs2bM4P55Tjk+fPpmkabEtWrQQlSpVMn+67EiZMqX5TqajZas6CfnRKwBj/vz5xlBUo0YNk/Ft27YVgwYNEkmTJhX58+cXw4YNM0Davn27GDx4sEiSJIkoU6aMoLfqIWhAqGypUqXMQugtJdD7fPnyiRMnTujlMu4Zx2vVqmWbB5X6+eefBS2yQoUK5q9kyZIiY8aM5je6cIYmjMBWRUxDUfUPAKLh8E79qQXcvHmzQb9Vq1amrJk6daqZp6x7pkyZxN69e41PGR5z5cplpkmRIoWgQekhaED++OMPk7gsQDBxunTpxMmTJ/VyGffHjh0LOY9Dhw7Z0pYPt27dasmDYejr16/ydZz47du3hhygrgsXLjTfT5o0yUKHBoMcItCjhg4danlftGhRS6+ThIIG5M8//7RkEAwYtJKWLVsaBZYFUuMjR46IbNmyBZ1PlSpVjGFLpalfjxo1ykLfn/4hR4acOXOatBHQjRs3ttBB2MvA7IperPKoU6dOxsxLppFx0IAwNj969Mj40e2PHj1qtAi6MeOwmrl6nTZtWtG+fXuBZnzq1ClDBsjC6DF5MHwgJNu1a+dIk3GaMZtWytBAz5Jl02mq98yc6tevb9KlgSDbfIXDhw8b6ZETCG4CDKeny3rS+hH6MiC7Zs2aZU6tGYadRoWgAZGZ6TGFrFatmlk4WUgZ9+7dW/8koHuEuqQh4yJFiog5c+YYwp4ZlNsA81OnTm3SRYhLJjvRouEh5FetWmUmYRoty0TcpUsXoeslDHVMThDsNBb9vSQWdkAgPHfuXEsB1cJSGTthJgtkF585c8ZgvEqnTp06giEtlKDbr4YMGeJTfpAXvRZmqrM3XT4sWLAg6GJFBBBmMnRblYHq9e+//x5wga9fvy4QvJjDJQ3Gfaa1oQbdfrVt2zbXJJEf6rBHGc+fP++ajvwgIoBAXG81kpnErMo5dVlZMBmjdyAj5Pd169Z13cMkLTVGfjBllnSTJUtmO+tRv7G7Rn6ow17hwoVthbXdt3bPIgbI6dOnLfqArDgxMycEur/AeK6CoSto/r739R7lVC0Tip0/+WFHj16l0vntt9/82qvs6MhnEQMEIUbh1MKq1ww7vgIzkxIlSpjflytXzjJz8fVtIO9Wr15t0qZczNLsJgYMSb5685gxYyx0sFuFEiIGCIXCgKeCoF4zE/Pl2cHQJNNnz57dmEmFUlH9W4x8kj6xVOLUdGjq6EnoDJcuXVJfGdd28oOZVCghooCgRKk2HpUBTkygMtLzgzRp0qQRuvkjlArzrd36x82bN+OQXbNmjQEaOoedvU2XH3nz5jXMLXEIuXgQUUAwQYwfP97SElVQOnfubDFDU0GeyTQ//fSTWL58uYvqBJYURVbmQZwnT544DAcArLK8Bxi7sGfPHgsdepM6Hbb7xt+ziAJC5nT1HDlyWAoumYFhESsxAZmjg4dbTiTCvXv3LOVp3bq1hZEwtW/fvkaaX375xTQg6mWZOHGihc64ceP0JK7vIw4ILQ3NVYKgxyzqMBZjWlDfISzthKzrGtp8gGKq5oVZRhoUAQPBzHuGS9XsrpKizG3atLHQQYsPNUQcEAqIwFQZoF6jVAGK+mzgwIE+ZzahVhpm4lUi82SCgb6zadMm0axZM+M5+oQvuxbmD3VKjqxkyA01eAIIBsKaNWuaDJCMIMZMrd7Tmxi+Ih0wiTv1XBaffIFB2eg5BQoUMMvOrC0c5fYEEHQKxleV8XbXzK7C0coCBZOhC7MMq3gYFmEq6+eqpdaJFjM1dBe0fazMAByO4AkgFJT5efLkyR1BwY0zXJVyy5h3794ZcsytzCI9wPALV/AMEFo+6yB2PYNnoVhIw8WM+EDHM0CorFS07EDB+QDNONqDp4Cgc6CE2QHCM+kQEM2geAYIltSePXs6ggEgCFW343hCA88TQBB6LN069Qz5HF+lcCw8/cggRRwQNF99qbR69eqO4OBeFM0hooBgjsCpTFX+MJFMmDDBERDMGHaW1WgBKaKA7N692/AulEPSjBkzDG3Wl3DHTSiQ1cSEClDEAEERVB0dpkyZYrZ8BLfuYCBBI8YXVhr7EirjneoVEUBYb1D9fjEx6KuD0j9WBUJely5dWuCkHY0h7IAwS8IZQTKXfRN2m19QAp0MjnzLRCAaQ1gBwaqLP60EA9M6ZmqnYOcxLr/FJTUYLxCnvH6U52EDBHM0q2uSoQ0aNPA77LCO7eRMjX/wP//886PwMWzlDAsgmLFVLbxhw4YBeYngXuO0JgGwTq45Yat9PCQUMiDIgtGjR5s9g3UFN2eEMDVOnDix+b3sYcTFixf3OeTFQ36GXKSQAGGFjE0rKhOPHz/uqlAA2rx5cwsNld68efNc0fvREwcNCOvSuvcfmxyDCbj6qCCo18iiaDLLBwUIYz+bHVXGTZ48OWhljiVTfYeRSjtYoINpHN/7G9eAoODpnu1jx461+DW5rRQGyBEjRlgAVgFhrZ000RACBgRzx5YtWwxnAJVZhQoVEuzhCDWwxctpK1zmzJldTRSCKQuAs7aOXGS54HuZbhwBAQAKyJblJUuWGNNap9kQnhukd1sJvoER+AAvXbrU4uekgs717NmzXdMPBBisCCioeOojr1gawJeXxTIaGh4zXgYLIDAG8ziFY2Oikwuozizu0Se6d+8ex2blVBkOBEB34cf01o6m+ozeg2MaDmlo8Ti6YbBkf59uJ3PKU31OYwNk1QCq5sc1++A5dsNLUCyAsCFRL5TbezZn+gvM0LDouqVtl55W7dYNBzCGDx9u5l+vXj3DP+vatWuGLzIejPLYDA4h2L9/v78qhe29BZCVK1eahbSrvL9nmEE4/sJfwCXI1zYFf/mo72Gs26AeNoMbKUOnGrCh4WyNfCQvZpBeBQsgOKox7LC7iWktW3/1H0usAEelUNpIy7DTq1cvw0IbiDslcgPdA+9x6ENLjWWePCcv+WOBa+TIkcZwxRo93pDILzeBxsDavQTVbsmYTanyPTF5ejXLswDipmI/alo2/0hmY5nWLcr0FgS6TEPMYQRehagDRHW44OQGmK3uIWSmCGgcYlasWLGw+u0GAmrUAaJvsqEHVK5c2ZhksIrJjI1JB+YalhS8driIOkA4HFkdjvRrdv5iiUAF+B4h6gBhrV4V6jog8p79gqHuqA0G0KgDBCahlPbp08dnTwEYnC3s/AGCYXSg30QlIDCHKT7e+Gj8CG/ZM/T4wIEDgfIyLOmiBhC0c4YrlptVUwjA8IwjMgYMGGBuhZbAsPnUyxAVgOD5gqkG21TWrFkNhZSZlF3g9FEOopGAoCB7GRI8INi5dEcKjupw2kdIj2EHrgRk586dXuKR8P82D72CIy8kg4k5LQLG2wVscfJUUxz+7I7csPsuXM8SfA/BtqYeIw4gvlq9qjiyDuSVDUsCmuABQVbIExfYdHrlyhXbrdcIevVsXbZFIOy9DgkeEBiKRVhuyYbRTHfR2BmecFvC8qwaFJs2bfrd/MGiAhCGHYyK+tmIqlxJlSqV4SQezkMAguldUQEIjMGKi9aNLxmnprKWgt6Box8yhd6i6yjBMDTUb6IGEJVRrHkgW+g5+mqhmu57XEclIN+D0YHmGQMkUE55lC4GiEeMDjSbGCCBcsqjdDFAPGJ0oNn8D2EgLmMoKROsAAAAAElFTkSuQmCC;" parent="1" vertex="1">
                    <mxGeometry x="-380" y="438.5" width="80" height="68" as="geometry"/>
                </mxCell>
                <mxCell id="282" value="" style="shape=image;verticalLabelPosition=bottom;labelBackgroundColor=default;verticalAlign=top;aspect=fixed;imageAspect=0;image=data:image/png,iVBORw0KGgoAAAANSUhEUgAAAGQAAABVCAYAAAC/xEFcAAANPElEQVR4Ae2cB6gURxjHBQVFY9dgRbGgosaWYo+9YY09ShSjpogdK4nYG/aGvZAo9k5ASTCoiKgJGhNjib333qMTfoOzfLtv98q7t5undwPHzu3OTvn+M/PV2TQqkVIVBdKkqt4kOqMSgKSySZAAJAFIKqNAKutOYoUkAEllFHDpzsOHD9X169fV/fv3XZ76eyuxQhz0BYx27dqpNGnSqLp166pTp045Svj7NwGIg75Tp07VYAAIv19//dVRwt+/CUAEfVkdzZs3twDJlSuXun37tijhfzYBiKAxfCN79uwWIJ988onmJaKI79kEIILEe/futcBgu/r666/Vv//+K0r4n00AImg8Z84cGyDz5s0TT4PJJgB5Q+dnz56pFi1a2AD5448/gkFBtJIA5A0x7t27p4oWLWoBUrhwYXXnzh1BquRl2fKePHmif8+fP1evX78OWVFcAoI0tXbtWrVhwwa1atUqtX79erV48WILDPhHp06d1Lp166znlGEVRZIA4e7du2rz5s1q7NixqnPnzqpq1apaguvTp4/at2+fevr0qWtVcQkIRDF6RjTXHTt2uBJR3vzzzz81CDVq1PBsI0OGDGrQoEGuAMcMyPnz59Vff/2lxcOTJ0+qW7duJfldu3ZN37t06ZK6ceOGzp89e1bx7tWrV/X10aNHcly2/MWLF9WxY8fUhQsX1JUrVxR7OyIq7bHVUAcz0vnjPv15+fKlVR+zt1WrVnrGMmv5ValSxUa8zJkz255T5qOPPgqpkzDj16xZo4oUKWLV1bRpUzVt2jS1c+dOxRi2bNmi+vbtaz3/4YcfrH6ZTEyAMNiKFStaDUQz22TZYsWKqUOHDpk+2a4QuU6dOq5tpE+fXpUsWVKhL1SuXNn6VahQQeXOndt65+jRo7Y64Q1sW9iquDJR8ubNa5UHIADnmfx57f+UQcNPly6dVcc333yj+YatYaX0vRw5cuhy/fr1Uy9evLAViQkQEJaETW6eDv7222+2jpk/Bw8ejLkN9ItQadu2bbY2unfvHpb5mvoeP36s9RU59qVLl3ryCN7r2rWrbg+rAIxeppgAWblypW0gslOR5t977z312Wef6e1GdszkYYD58+dPdjvVq1fX25apz+363Xff2eqPVP949eqVFgzSpk1rvQ+YrGqvxK7CqoY+c+fOTQJ8TICwN9+8eVP/WPYHDhzQkknr1q0V+7AXKJgnOnbsqJYtW6Z+//13zQO8BsCeD9/Zs2ePfserzuLFi6sBAwaocePGacmIvpi+edXNfSSnhg0bWn1lgsDbIkkQF4uw7BMTyCsh/rJNUZ5t+sSJE0mKxgRIktre3GAZ16xZ09ZR2elvv/3W69WQ92Hqsh7yZcqUUTNmzFCXL19WzNhoE8TPmjWrVS8MnP6HS0yU4cOHW+/Rl2rVqtl8KJSB2SN4bNq0SfXv31+XR8pC3HZuV7TpCyBUPHPmTFtnJSGRWOhkNOnIkSOa8LKeevXqaZk+mnqcZVmlss7BgwdHBCwCwQcffGB7FwkK+xc8ok2bNqpRo0aKLVMC3qxZM70zBK6HIMmULVvW1mE5cBhfpOnMmTMKxos53NTBvo84HWv68ssvrTqpe/v27RFViRjLTDf98boi7X366aeqR48eauvWrWEnom8rhFEx27w6ilfObcm6UQO9Ax5h6qpfv37YgbnV47wH/0BkNvVmzJgxpK4h30e3MO9xLViwoPrxxx/11vTLL7+ow4cPa3GanQAdyyneyrpk3ldA6JTUB+QAkJxg6OES+7kEI5yCFq4++RzlVPapVq1aEfEP6kASk+8CbCS8R7bvlvcVEKSKL774wtZxOQi2nVAJJl2+fHnr/Y8//jhFHUarV6+26qZfSGluggGzW9qxUBClxs27rHgvxTHUGJ3PfAWExjDgSRBkHkksVGQHW5MpX6BAAW02cQ4glv9OomJMdCa0cEwtGAiPHz9uPXb6TkaMGGE9iyXjOyDI6mwFhrDOK1ZXt2QiPyifLVs2bb9yK5fce8x4pw3r3LlzSarDPkUf2rdvr3mBKfDTTz/ZxrR8+XLzKKIrQg+2OGfyHRCW8ejRo22dl6B06dLFxvAePHiguGfKYB9asmSJs98x/0eRNW1wxSjoNHDCE0qUKKHLsb3JRHiQfB8ze6SJScpWjB2Q8crkOyA0hkaKFCIHYPJorGamwHOc4GG08yNhNTZ94IreIK3C5Hv37q3L4El0mkPYysxz3v/888/DSo0oilgcDMi4ASRvYpyBAMLM69atm40AkhiTJk3Sq2T69Om2MuzLDMKPhDgqRd4OHTpYTBkw5s+fr/vCdsmMdktIiUwoMxYcUm6JMaAzodnny5dPl4d/YVF2pkAAoVE8bqbjzisaLaDI+5gZItVTnIOK5D+S09ChQ602ETDQdzBxmNis0qVLKze+YupnduNpzJMnj67n/fffVwsWLFB///23QqTetWuXgvmjfBqtHjcB1gHnVmXqDAwQDH21a9e2CCCJj19D/mc1sX35ndiGvFYuziVsZ+ESgXQYFJ1GRjke8hgwMSeFM1wGBgjy/ahRo2yEd3aa/0hXXrMnHHGS85ytC7MMLlUMi2wlrGa37cSrfgQXwMU0MnLkSNWyZUvVuHFj1bNnTzV58mRtjkG8j2SSBQYIg2EpZ8qUyROUJk2aJGGeXkRI6ftsj2xjbophNG3xPoZD6ooEAGfdgQKCZIIfxG1lcI/9Nt5ToIBAbKNouYGCRgxo8ZwCBwSFSkZmOIFBMonnFCggaL44cJwgyP8wVb90j7cB6MAAQWbHdSuJ75b/8MMPU9yI+DYAYfoYCCDMeKerFC+aGyDccwsgMx1+16+BAIJ8LpU/ovnGjBnjCQhmDKeh710HwozPd0BwZ5o4JGb/lClTtHyOQdGLuRMm5BU4Zzr+rl59BYR4XBnoMGHCBEusRYFyBhjILQx/fEp44N424HwDBH+DjPvFPer0DrKVSRBkvlKlSikSVZIARCkdiUgwgiEwvgK3wy/wCS+DI+8iCMRbSvEVQtgnwWEGDKycWHq90sSJE62y5h1zxWmUEpEcXm2nxvspCgimaHlODz9HuGA2/A1ewdTEB+/fvz810s23PqUYIJixpRaO+Zl423AJ75yXT4KV4hWaE67et/V5igACL/j++++trQe/QjTfCPn555+VDOk3WxbXcuXK6ej3t5XA0fY7ZkCw/XPOQRKRQzbRJCy8OHVkHTI/a9asaKp7q8vGBAhOGKc5fePGjckiCKE+EgSZhxcF6UVM1gBS6KVkA4KHzRm9N378+GQrc7hMCQCQQMh8coFOIToFVk2yAEHBc0a240uWcU3RjoB3hw0b5gkIkYOx1B9tf/6v8lEBgikD7RqmLWdvqVKlFGc4Yk3Yr7yOwhFq888//8TaRMj3ARyeiC8cd8H/YboJCYhx2HNkeeHChVqs9ZKGAIoBRDsI2oAQBKMtWrTIdvRAgk6eQLpo6w+JwJuHWBFQUInUh1/hGmBF4iw7ffp0oA6zJIBAGMzjAwcO1OfDvUJAncTiP/rEV199lcRm5UUUTiGhu/BDvHWrU95j9XBWhOBtDpbSFgZLAraddjKvNuV9VgEgSwOobI88lmqC4YLyYiYBhM9HODsV7f9IAsyQ0IYMGRJzW/SNWe11Zk8CIPOAISMXGzRooOOzWBEcOyCCkWNo1M+ho6A+9ZcEkBUrVsREJMwgBDKHSyiToY4pRDMJADbaJD82QxgpW6dMAEwwNfyRvnDcOoiUBBBMIGwFnG5CIQMg5w8XK+chGBRlKMu2w+cksNBGEiDGFoDuQRg/9VOXvJo2uU9b5oeDi6Bl+oiPHumOyMNoEjoNvnsDupvLmEOp5jlX2mRV+52SAOJ3g6mhfr59YoiNZdppUWa1wNBNGa6cKw8ixSUgMuCCLzdAbMmDkOT4zBIfMSNqHYXXzZ/jB0BxCQjbpJz95PkKA7yITyghsSGKY2PDpRBkwEVcAoLE5ARE/ue4GZYIr4M6fqwMU2dcAoLTTDJ1CYbM85UiAjWCTHEJCAQmCKNXr14hVwrgEGwRFP+gX3ELCIPnkA3uA0ToUNr67t27A1skcQUIkhTbFbqWNIXwnx8fnuF7VuaUrNm+OHzqhw3NDeW4AQQGjRSFbYqTsISyeh0q5cMyfIjGADJ79mw32vlyLy4AwW7lDKTgUx1e5whZLZzANYAAUFApLgBBr5BfrYbQfGTM+TEAQ3RsceYrRgT8ccQ5qBQXgMA7cubMac14AAk16zEkmtXBufMgPZVxAQhGwbZt22oic+iUECW3oAkYPWaUQoUK6bIci/BaRX6tmLgABOJhETZHsvEG4tTiPCPbE2FLWJ6lQZFvIxIWG3SKG0DYdjAqyk/Cmm3JXLNkyaI/Kc6WFfTKMMDHDSAMGF0CQvOpJT5zwZcl0DsI9IOnsFqQsILkGQYIc40rQMygueLzgLdAfKe3UJYLOh+3gARN6EjbSwASKaUCKpcAJCBCR9pMApBIKRVQuQQgARE60mYSgERKqYDK/QdITQpO+BfM3gAAAABJRU5ErkJggg==;" parent="1" vertex="1">
                    <mxGeometry x="-736" y="830.5" width="83.31" height="70.81" as="geometry"/>
                </mxCell>
                <mxCell id="283" value="" style="shape=image;verticalLabelPosition=bottom;labelBackgroundColor=default;verticalAlign=top;aspect=fixed;imageAspect=0;image=data:image/png,iVBORw0KGgoAAAANSUhEUgAAAGQAAABVCAYAAAC/xEFcAAAM9ElEQVR4Ae2dB6gVRxfHHygoGrFgjCWK2MXeYjdW7F3sqBhbBHuJShRjRVGxo9h710TFhhVNIvZC7F0TW+zGWKITfvt9s8yuu3v33rebu953B5bdt+XMmfnPnDZn7ksQ8RKoHkgIFDdxZkQckIANgjggcUAC1gMBYyc+Q+KABKwHAsZOfIbEAQlYDwSMnfgMEUK8ePFC3L9/Xzx79izq8CR5QACjZcuWIiEhQdSoUUNcvnw5qqAkeUAmT56sgQEgHPv3748DEq0eYHY0atRIByRjxozi0aNH0WJHqzdJzxD0Rvr06XVAypYtq+mSaCKSpAE5dOiQDgbiqkePHuKff/6JJh5JO7g4c+ZMAyCzZ8+OKhhUnmRnyOvXr0Xjxo0NgJw5cyYOSLR64OnTpyJ37tw6IDlz5hSPHz9ONDvv3r0Tr1690o43b96IDx8+hEUzScwQrKm1a9eKDRs2iJUrV4r169eL+fPn62CgP9q1ayfWrVunP+cdZpGbAghPnjwRP/74oxgzZoxo3769qFixombB9e7dW/z888+uaSUJQOgU6WeEc965c2dIPH777TcNhMqVK9vWkTJlSjFo0CBXoIQNyM2bNwVMYDJevHhR/Pnnnx8d9+7d0+7duXNHPHz4ULu+fv264Nu7d+9q55cvX9o29vbt2+LcuXPi1q1b4o8//hDIduq7dOmSNhKhwYg0H9yHn7dv3+q0sZqaNm0qKlSooB/ly5c3dF6aNGn0Z/K9MmXKOPokf//9t1i9erXIlSuXTqtBgwZiypQpYteuXYI2/PTTT6JPnz7682XLlul82V2EBQiNLVmypF5BOKNNfTdPnjzi2LFjljzRydWrV7esI0WKFKJAgQICf6FcuXL6UaJECfH555/r35w9e9ZAG92A2CJWxZmBkiVLFv19AHrw4IH2jOfysJP/PMfDT548uU7j22+/1fSGoWIhtHsZMmTQ3uvbt69AvDmVsAABYbVjI72GQTtAjh49mug68C+cypYtWwx1dOnSxbXy/euvvzR/RW37okWLBDPGrnTq1Emrj6iAOnut3g8LkBUrVhgaojLl9vqzzz4TzZo108SNFUO//PKLyJo1a8T1VKpUSRNbVrTlve+//95A363/8f79e80gSJYsmf59165dBRabXUFkM6vpn1mzZoUEPixAmG5UwMG0P3LkiGaZNG/eXCCH7UAhPNGmTRvBSDp58qRAx9gVZD7ig1HON3Y08+bNK/r37y/GjRunWUbwInmzo819LKfatWvrdBkg6DY3BZFNRFjl6ddff7X9FPMXMcX7iGl0bqgSFiB2xJjGTlZGz5497T51vI/iVxvPdeHChcXUqVM1Zc+IDbfQ+WnTptXposThP1RhoAwbNkz/Dl4wbZ8/f65/yjuILmbMpk2bRL9+/bT3sbJWrVol8EtCFU8AoZLp06cbmFU7EovFaVpbMXn69Gmt41U6NWvWFIi0xBRmqUpz8ODBwg2wGARFixY1fIsFRfwLHdGiRQtRp04dgchUAW/YsKEmGZx0jNoezwDBOipSpIiBYbXhCxcuVOt1vL527ZpA8RIOlzSQ+06izpGg8vCbb77RaUJ769atylP7S0xwRrrkx+6Mtff1118LdMvmzZvDXoX0DBCawmizY7RVq1aupix08DvQEZJWrVq1wp5hVl2L/sBklnRTpUrl6GuoNPAt5Hecs2fPLpYvX66Jpj179ohTp05pehVJgAgMZU2ptNVrTwFBzKj+gNqAbNmyiRMnTqh1W17TGBWMUA6aJRGbmzinKk9Vq1Z1pT8ghyWmfguwKG2vi6eAICc7dOhgYFxtBGLHqSDLixcvrn//1VdfebpghGet8oOVZqU/GN2qAsZBVD1uaLAOb+c4OrUx1DNPAaEyAnhqo9XrKlWqOIoeRJN8/8svv9QsqVANCOe5uVMJJpoLXjihFgKEFy5c0B+b106GDx+uP/PywnNAWJNGFMiONZ+JuloVmfnB++nSpdP0iNV7kd5Df5hjWDdu3PiI3Jo1azTe0XlqvG3btm2GNi1ZsuSjb51uEL75z/wQMyOjRo0yMK+C0rFjR4PCw47nnnyH+NCCBQvMJBP9N46srIMzQUG1w6mAv/Pnz6+9BzBqIT1I/Z4wu9uCQ4koJg6o+i1W33s+Q6iEkYAVojZAXuOxErWloBTN4BG086MQNZY8cMZvUAN9XPfq1Ut7h5VEzHi1IMrkc75v27atQc+o78prHMWDBw/qILMMEGqNxRdAsJQ6d+5s6AC1MyZMmKDNEkLV6v0RI0b4lmSAY6eavK1bt9aVMmDMmTNH4wVxaZcKRNiHASV5ZkHKqkAPnwnPXsbl0F+EhEIVXwChUlbcJOPmMx4toKj3CTOolk0oxsN9juU0ZMgQvU4MDPwdQhwyN6tQoUKOcS1GNyuNmTNn1uhkypRJzJ07V5w/f15gUu/bt0+g/HE+pVfPMgHRgVCiSrbHN0AI9FWrVk3vALXzWddQ/2Y2+WHTy0bKM2LIbuayuOQmyMjsIXxjDjKq7eGaAOa0adNc0ZT8cfYNEOz7H374wdDxZqb5G+vK7ehRGY/0GtFFWGbgwIHaKiGihNnMiqTbgv8BuIRGRo4cKZo0aSLq1q0runfvLiZOnKiFY6gnkkHmGyA0jqmcOnVqW1Dq1av3kfJ02ymJfQ/xiBizcgzDoc33iDJoRQKAuS5fAcEycVrTYMEmXow94CsgVCUdLStxhUf8X4orY9OD+ZfvgOBQqZkZZmD27t0bzJ6JEle+AoI/wgKOGQT1b5QqDlS8/K8HfAMERcfSrdr5VtelS5f2PIj4KYPrCyCMePNSKatoVoBwb+nSpZ9yH3rKuy+AYJ+rzh8hktGjR9sCQhjDHOjztJWfEDHPAWE5U+YhMfonTZqk2ecEFO2UO2lCx48f/4S6zT9WPQWEfFw10WH8+PFaWibs40CRIWgntliP92MFzr+u84eyZ4Cw3qDm/bI8SvhALYgyO0BKlSrlSVaJWt+neO0JIGSdk4wgO5u1AqvNL+gJu4Aj32IIJPWSaECI8ZMcJsEgykmk166Yw+7yO84sGvmt3IlhERgkrBNEEZkoQAhFq/v0WOcIlcxGiJuUIBUIeU1+8OHDh+2wTPR9wJCJDqSQXr16NdE0vSYQMSAkhKleOOHn33//PSR/rKbZrUkAjF1qTkjCLl4wJypgigetRAQI053YvxzZjLYrV664btvu3buFmtIv6XAuVqyYq6VO15X9/0WsPPM2hGj/jIZVG8IGhGQ4dgupncgmm3AKgLKoo9JQr0nc9rqgN+rXr2+ok2XXoJWwAGERhvQXtfM2btwYUZtI9VHpqNfoIq/D8iS9qT+jgYlO8DNoxTUgKETzljY2y0RqqbBkSgKACoR6HSnQdh0ss0pkHeSC0aagFVeA4OB99913hs5jLRkFHWnhWzULRHaUPJM5yIz0qqgGCHXMmDHDK9Ke0nEEBEWId43Slh3FuWDBgoI9HIktZMPbbYUj1SYcQ8GJF/SeeWevn+a1Ey+hnhkAAQAW6tkhS74Ro8rOGgIoxFW4Ios6mB2kV5LjpG49UEHneujQoWHTZ1aR8M3BNjIySsjDzZEjhz6osOT4RQfyjHnOwVaKIJQEOobw+IABA7RRZJcCau4s/saf6Natm2NGu9pIdiEBMgedYkXTfI9dVCRvs7EUU5uAJev05jiZrMe85dlMz+7voAQ3E3bs2OGqY+wawn06OlRh5DrpDCf65mdYYXZ79sifJcsdMSvP5u/lfd7hIMUUEzjc2R6qzZE8T2C1zsxwOH8TBiGROVQhRuW0TSGcOhnNdgWRS10c+B7E1chKlPTZBk0CtHxHnhGlQSgJhEAQBXixWB4ApB7IX8zdxYsXazKfMz4E8p+NnOyzc2PPs6wLHcQN9PlePcs6uU+d1MMxb948Q91EhN1u1KSDiTrLhGdAYXbYza5AABIEJvzkwaxTWCQLcjFYWUFmNFLezDuDmX1BLjENCKJJ1VvoD6e1miAAFdOAEL9Ss18Ax4uEaD+Bi2lASOaW1hXnUNuy/exot7RjGhBz/Gr79u1u+yVq78UsIOgPTFw5QxBdVokXUet5m4pjFhCiBxIMzvx8lJX+IIKAHxWUhO+YBYTAoQoIIRVzaIQg59ixY7XQCb+WF4QSs4DI7BIJipX/wd4VtjmzY5YgaxBKTAJCOEjdkw4opLmqBVElEzVYlg61oV/91s/rmASE0Ly6PMwP2QCSWvhNXYDy8uefVPqRXsckIChpfg9Riqt8+fIZFDrRXvksKAtTEsCYBITGqU4hP82H0j5w4ID+K6FffPGF9u+NEpMXIDvRy3PMAsIsMSt2OSvIz+JnNdAjQSsxCwgdjd/BD+oTMiEJHIDY9Rsq/ziaIMU0ILJjZWJFUJw/yZfVOUkAYtXwoN6LAxIwZOKABAyQfwEhPRAtp7u/8AAAAABJRU5ErkJggg==;" parent="1" vertex="1">
                    <mxGeometry x="-644" y="833.31" width="80" height="68" as="geometry"/>
                </mxCell>
                <mxCell id="284" value="" style="shape=image;verticalLabelPosition=bottom;labelBackgroundColor=default;verticalAlign=top;aspect=fixed;imageAspect=0;image=data:image/png,iVBORw0KGgoAAAANSUhEUgAAAGQAAABVCAYAAAC/xEFcAAAM3UlEQVR4Ae2dB8gVRxDHBQOWKJpo7Bqxi7232BUralTsKESxgb2gIEYNaqzYUexdY8OCBXsLib333hJ7jTExuuF3uMfcefd60/cWHrvf3d7s3Px3d2ZnZ+9LohIppiSQJKa4STCjEoDEWCdIAJIAJMYkYGPn5cuX6v79++r58+e2O5H5MzFChJwBo0WLFipJkiSqZs2a6urVq+JuZIoJQIScx48fb4ABIPz27Nkj7kammADkg5wZHfXr1zcBSZ8+vXr8+HFkUBCtJAD5IAz0RubMmU1AypUrZ+gSIauIFBOAfBDz/PnzTTCYrrp06aL++++/iIAgG0kA8kEaHTt2tAAyY8YMKaeIlROAKKXevHmjKlSoYAHk9OnTEQNBNpQARCl1/fp1lS5dOhOQnDlzqidPnkg5uZaZ1gD0n3/+ca3DDYwG1jbepsG4A+TFixdq5cqVas2aNWrZsmVq9erVas6cOSYY6I+2bduqVatWmfepg9Dt6enTp2rcuHGqYcOGqk2bNmrs2LEWQwDhP3r0SM2cOVN16tRJlSlTRvXq1Utt3rxZ/fvvv3Zyxt9xBci7d+8Mgeh1hj/5tm3bLALEKkPIdhpYZ/v371d//fWXWrt2rapcufJHdfLnz6+2b99uoaf/CAqQmzdvqrNnzxq94tKlS0ZvoEfI359//mn8fefOHfXgwQOjzBTBs3/88YeRv3r1SvPzUX779m117tw5devWLXXv3j116tQpsz16KDTI7T+uw8fbt29NmvTY77//XlWsWNH82XVH6tSpzXu6Hj1brkloi1EBGFOnTlWMumrVqpmCb9myperXr59KkSKFyps3rxo0aJAB0tatW9WAAQNUsmTJjNHCNGZPAQPCy5YsWdJkwt5TfP07T5486siRI3a+jL+Zx2vUqOHYBi9VoEABRY8sX768+StRooT65ptvzGfsyhlh6vmcnI4i1x8ARMfhnvxJBtevX2/Qb9q0qdERuPfzzz+bbep3z5Ahg9q9e7fxKNPjt99+a9ZJlSqVevbsmSRrlAMGZPHixSZxzUAg+ddff+0KyOHDh4Nu48CBAx+9tLywceNGSxtMQ+/fv5dVLOXXr1+b09706dPNeyNHjrTQocOgh0h0goEDB1ruFylSxDLqNKGAAVmyZImlgUDAoJfIXqaZ0vmvv/6qsmbNGnA73333nTFtaXpO+ZAhQyz0va0/9MyQI0cOkzYKukGDBhY6KHudsK4YxVJG7dq1M/SMrqPzgAFhbn748KHxY9gfOnTI6BHNmjVTzMOycVn+6quvVOvWrRUr4+PHjyt0jFuiDaYPejnPSDqyzDzdt29fNWrUKMMyghfNmxttrmM51alTx6RLB0G3eUoHDx406qMnUNwkdAgjXfNE74dvndBdEydONE1rpuGjR4/q25Y8YEAsVMQfMFmlShWTOc2kzrt37y5q+15E8WsaOi9cuLCaNGmSoeyxoPxNN27cUGnSpDHpoj+Ykjyl33//3VDICxcuNKthRmueyH/44YeP1iXQxTjZsmWL0Vnc1i0hBwQuJ0+ebGFQMovF4qTMzLdzKJw8edIQvKRTq1YtxZQWTLL7r7CAPOkP2mLUIkxpvdn1w7Rp0wJmKyyAYB0xbKUAZXnevHk+M3zt2jWF4sUdrmkw72PWBpvs/qtNmzb5TRL9Iac9eDxz5ozfdPQDYQEE4vZeo4VJzq6c25DVjOmc0YGO0M/Xrl3b7xGmackc/YHJrOmmTJnS0eqRzziV0R9y2itUqJDytK5yoiGvhQ2QEydOWNYD+sXJsZyOHTsm+XAs82ISDPsCzfEhHy8y8iRPLOy0kvaRhFGNUSXptG/f3qu/yhP9sAGCEoM5yawsM+14SlgmxYsXN58vW7asxU/k6Vlf7q1YscKkDV9YaU6GAVOSp9E8dOhQCx38VsGksAECUzjwJAiyjCXmKbKDqUnXz5Ytm2FJBfOi9mdx8mn65HoRJ+sxHbFOwtl44cIFecsoO+kPLKlgUlgBYRElfTxSAG5C4GV05Ad10qZNq+zuj2BemGfRH3YfFiawPelRJNccsg4dSuqP3LlzG+4WWcffclgBwYQcMWKEpSdKUDp06GBxQ9MjuabrfPHFF2ru3Ln+vpPX+jgsdRvkuXLl+kgRo7/wynKfdYZT2rlzp4UOo0maw07PeLsWVkBo/OLFiyp79uwWxrUwcCziJSahc+zgTZgwwRv/Ad2/e/euhZ/mzZtbBIlQe/ToYdRp3Lix62bV6NGjLXSGDx8eED/yobADQk9j5apBsOdjxowxRgmuBXkPZemkZCXzgZaZamRbrVq1MheE6AUUM/eZLqXbXbaHomdTStJhFR9sCjsgMMiOm2RclllUAYq81qdPH4+WTbAvjdCJKtFtYmCwz7Ju3TrVqFEj4zrrCU9+LXxVRYsWNWmgK5lyg00RAQRHX/Xq1U3mtSDIcVPLvxlN3vxJwb40z+MSdxu5bD6xIeYpMXIk31htTtu8nmg43YsIIKwpmF/lCziVsa5C0cucXtTpGlPXhg0bVP/+/Y1dQoTKaGZ71lv6+++/jbULq332QgA4FCkigMDo+fPn1ZdffukKCmGcoXopfwWDPmAa81dnUZ9REYqRoXmOGCBsh3ra05C7b5q5eMwjBgjCte8byGmL4ANAi/cUUUBYc7AIk0DIsg4IiGdQIgYIntSuXbu6ggEwKFUMgHhOEQEEpcfWrRwNTuXSpUuH3In4qYEbdkBwQ9i3SqtWreoKDuFF8ZzCDghBZXLxh4vkp59+cgUEN0YwO26fOphhBWTHjh1GdKGennAWsqDypNwJE3ILkfnUhe0L/2EDhI0aGeiAZ1T3fBZU9gADDRo5+/Heoj98eblPsU5YACFwTsb9sj1q3x3EZSFBkOVSpUp5DKD7FAXtK88hB4TwHIIRtIBxUTsdfmG0uDkceRZDIB5TSAHBJU08rQYD1zqeXrfkFDGun2XTKJAoELe2nK7jw8J/hocgVqbIkAGCO5rdNS3QunXrep122Md2C6YmPvi3335zkmNIrgGGDnTgHEg0vtrg9CIhAYTQULkKr1evnk8LPDysbnsSAOsWmuP0Iv5e41iZ7jzkmOKxkIIGhOEud9/obVeuXPH53TCNkyZNahGOFlSxYsUsUeQ+E/VSESvPfgwhGp/RcGIzKEDY2evWrZtFmByy8ScBaJMmTSw0NCDkU6ZM8YecT3XRG/bzHByzi4UUMCDMwfYVN4ccA0mE+kgQZBldFOpdRILeWIDqdjivEW4Dwle5BAQIYNiPtHFYJlBLhS1T+wkjLSzyQIF2E4KOKtFt/Pjjj2ENqnDjw+m634CwwLNHtg8bNswS1+TUkKdrOCAHDx5s9lgtKJ0TORhsAJpsXxogtMGpqFhJPgOCImR1jdLWgiIvWLCgIpI82IT/yu0oXKZMmfwyFDzxgi9NnuwlFFQeP/P0bCTuuQICAChtjizPmjXLMGvdrCGAYrryd8qiDXo+McCzZ8+2HD2QoFNmBPlLH7OagG/51QaOonFgU9OnQy1fvlz98ssvRsQJUSecSYlWsgCCYHCPc+idXuQWAqpfRuasJzp37uzzYRrinpg6+GHeSlpuZU5REZDGwVJMbRyWCNLuJ9PCtB95dqNrvx5N56YFEL40YGfO37+9BZghLHouXzfwl7ZTfawwtzCcnj17GlHuTLNEu9unW+jp69zjR5wVJrC/o1F3gmBzCyCLFi0KSki4Qfj8hbeEGevpmIKT4N2uAaxbYsrFicmPtQd+Nf1JDOhxDJrvkug6OmcqjVayAIILhKmAVSzf8AAg+WP+xdxdsGCB8QUdnfM1HQ5yLl261KcwUAIZoENYEPR5Xua6Ta7TJu3otmSOR9ifg5p4nbNkyWJ2OkYHSj6WkgWQWGIsHLzYdQqf0Yi1FFeA2NdPjL5YS3EDCPpEboihP7AqYy3FDSD4r2T0C0ZFrOkPOkfcAEIwt7TUvB3LjtbIiRtA7P4rPgITiykuAGFqksegmbqcAi9iAaC4AATvgZyu+DAlSt6e8CCwLxLNgO+4AAR/lwQEl4rdNYKTk6NpuE5Y4EYrxQUgOrpEg+K0/rh8+bLi3Dwna6NpDn/2gOAOkp9hAhT790iYqvBUc49R4uasjMSo+ewBwTUvt4f5kI39i3b6s6+h/PxToOB99oCgpCtVqmTqkHz58pkKHT2yb98+8140N6Y0gJ89ILyoXBQmT57cUNp79+5VvXv3NsDImDGj8e+NQrlvrwXsbx4XgDBK7IpdK3jis/isBnokFlJcAIKgWXfwQX1cJgSBA9CuXbu8xh9HGqS4AUQLVgdWRHPxp3lxyuMOECchxNK1BCCxhEY8ud9jTO6u7CRGiKtoonMjAUh05O7aagIQV9FE50YCkOjI3bXVBCCuoonOjf8BXmA12rcQtNIAAAAASUVORK5CYII=;" parent="1" vertex="1">
                    <mxGeometry x="-380" y="512" width="80" height="68" as="geometry"/>
                </mxCell>
                <mxCell id="286" value="&lt;font style=&quot;font-size: 32px;&quot;&gt;&lt;b&gt;Select Model&lt;/b&gt;&lt;/font&gt;" style="text;html=1;strokeColor=none;fillColor=none;align=center;verticalAlign=middle;whiteSpace=wrap;rounded=0;labelBackgroundColor=none;fontSize=22;fontColor=#1B2D3D;" parent="1" vertex="1">
                    <mxGeometry x="21" y="235" width="231" height="30" as="geometry"/>
                </mxCell>
                <mxCell id="318" style="edgeStyle=none;html=1;exitX=1;exitY=0.5;exitDx=0;exitDy=0;strokeWidth=4;fontSize=36;fontColor=#1B2D3D;" parent="1" source="292" target="271" edge="1">
                    <mxGeometry relative="1" as="geometry"/>
                </mxCell>
                <mxCell id="292" value="&lt;b&gt;Best Model&lt;/b&gt;" style="rounded=1;whiteSpace=wrap;html=1;labelBackgroundColor=none;fontSize=32;" parent="1" vertex="1">
                    <mxGeometry x="290" y="469" width="200" height="60" as="geometry"/>
                </mxCell>
                <mxCell id="296" value="&lt;font style=&quot;font-size: 32px;&quot;&gt;&lt;b&gt;Input&lt;/b&gt;&lt;/font&gt;" style="text;html=1;strokeColor=none;fillColor=none;align=center;verticalAlign=middle;whiteSpace=wrap;rounded=0;labelBackgroundColor=none;fontSize=22;fontColor=#1B2D3D;" parent="1" vertex="1">
                    <mxGeometry x="-258" y="453" width="80" height="41" as="geometry"/>
                </mxCell>
                <mxCell id="297" value="&lt;font style=&quot;font-size: 32px;&quot;&gt;&lt;b&gt;Input&lt;/b&gt;&lt;/font&gt;" style="text;html=1;strokeColor=none;fillColor=none;align=center;verticalAlign=middle;whiteSpace=wrap;rounded=0;labelBackgroundColor=none;fontSize=22;fontColor=#1B2D3D;" parent="1" vertex="1">
                    <mxGeometry x="632.5" y="820" width="80" height="41" as="geometry"/>
                </mxCell>
                <mxCell id="312" value="&lt;font style=&quot;font-size: 36px;&quot;&gt;Test Report&lt;/font&gt;" style="rounded=1;whiteSpace=wrap;html=1;labelBackgroundColor=none;fontSize=32;fillColor=#cdeb8b;strokeColor=#36393d;" parent="1" vertex="1">
                    <mxGeometry x="1040" y="450" width="210" height="100" as="geometry"/>
                </mxCell>
                <mxCell id="317" value="&lt;font style=&quot;font-size: 32px;&quot;&gt;&lt;b&gt;Save&lt;/b&gt;&lt;/font&gt;" style="text;html=1;strokeColor=none;fillColor=none;align=center;verticalAlign=middle;whiteSpace=wrap;rounded=0;labelBackgroundColor=none;fontSize=22;fontColor=#1B2D3D;" parent="1" vertex="1">
                    <mxGeometry x="190" y="460" width="80" height="41" as="geometry"/>
                </mxCell>
                <mxCell id="319" value="&lt;font style=&quot;font-size: 32px;&quot;&gt;&lt;b&gt;Load&lt;/b&gt;&lt;/font&gt;" style="text;html=1;strokeColor=none;fillColor=none;align=center;verticalAlign=middle;whiteSpace=wrap;rounded=0;labelBackgroundColor=none;fontSize=22;fontColor=#1B2D3D;" parent="1" vertex="1">
                    <mxGeometry x="500" y="460" width="80" height="41" as="geometry"/>
                </mxCell>
                <mxCell id="329" style="edgeStyle=none;html=1;exitX=1;exitY=0.5;exitDx=0;exitDy=0;entryX=0;entryY=0.5;entryDx=0;entryDy=0;strokeWidth=4;fontSize=30;fontColor=#1B2D3D;dashed=1;strokeColor=#A6A6A6;" parent="1" source="320" target="219" edge="1">
                    <mxGeometry relative="1" as="geometry"/>
                </mxCell>
                <mxCell id="331" style="edgeStyle=none;html=1;exitX=0.75;exitY=1;exitDx=0;exitDy=0;entryX=0.25;entryY=1;entryDx=0;entryDy=0;strokeWidth=4;fontSize=30;fontColor=#1B2D3D;dashed=1;strokeColor=#969696;" parent="1" source="320" target="253" edge="1">
                    <mxGeometry relative="1" as="geometry">
                        <Array as="points">
                            <mxPoint x="-1000" y="740"/>
                            <mxPoint x="-640" y="740"/>
                            <mxPoint x="-57" y="740"/>
                        </Array>
                    </mxGeometry>
                </mxCell>
                <mxCell id="333" style="edgeStyle=none;html=1;exitX=0.5;exitY=1;exitDx=0;exitDy=0;entryX=0.25;entryY=1;entryDx=0;entryDy=0;strokeWidth=4;fontSize=30;fontColor=#1B2D3D;dashed=1;strokeColor=#969696;" parent="1" source="320" target="271" edge="1">
                    <mxGeometry relative="1" as="geometry">
                        <Array as="points">
                            <mxPoint x="-1098" y="770"/>
                            <mxPoint x="-540" y="770"/>
                            <mxPoint x="60" y="770"/>
                            <mxPoint x="671" y="770"/>
                        </Array>
                    </mxGeometry>
                </mxCell>
                <mxCell id="320" value="" style="rounded=0;whiteSpace=wrap;html=1;labelBackgroundColor=none;fontSize=20;fontColor=#333333;fillColor=#f5f5f5;strokeColor=#666666;" parent="1" vertex="1">
                    <mxGeometry x="-1293" y="315.5" width="390" height="371" as="geometry"/>
                </mxCell>
                <mxCell id="321" value="&lt;span style=&quot;font-size: 25px;&quot;&gt;General Config&lt;/span&gt;" style="rounded=1;whiteSpace=wrap;html=1;labelBackgroundColor=none;fontSize=18;fillColor=#dae8fc;strokeColor=#6c8ebf;" parent="1" vertex="1">
                    <mxGeometry x="-1223" y="408.5" width="230" height="60" as="geometry"/>
                </mxCell>
                <mxCell id="324" value="&lt;font style=&quot;font-size: 23px;&quot;&gt;Dataset Config&lt;br&gt;&lt;/font&gt;" style="rounded=1;whiteSpace=wrap;html=1;labelBackgroundColor=none;fontSize=18;fillColor=#dae8fc;strokeColor=#6c8ebf;" parent="1" vertex="1">
                    <mxGeometry x="-1223" y="502.5" width="220" height="60" as="geometry"/>
                </mxCell>
                <mxCell id="327" value="&lt;font color=&quot;#1b2d3d&quot; style=&quot;font-size: 30px;&quot;&gt;&lt;b style=&quot;&quot;&gt;UNIFIED SETTING&lt;/b&gt;&lt;/font&gt;" style="rounded=0;whiteSpace=wrap;html=1;labelBackgroundColor=none;fontSize=20;fillColor=#fff2cc;strokeColor=#d6b656;" parent="1" vertex="1">
                    <mxGeometry x="-1293" y="318.5" width="390" height="60" as="geometry"/>
                </mxCell>
                <mxCell id="328" value="&lt;font style=&quot;font-size: 23px;&quot;&gt;Model Config&lt;br&gt;&lt;/font&gt;" style="rounded=1;whiteSpace=wrap;html=1;labelBackgroundColor=none;fontSize=18;fillColor=#dae8fc;strokeColor=#6c8ebf;" parent="1" vertex="1">
                    <mxGeometry x="-1223" y="596.5" width="220" height="60" as="geometry"/>
                </mxCell>
            </root>
        </mxGraphModel>
    </diagram>
</mxfile>